<?xml version="1.0" encoding="utf-8"?>
<!-- Generator: Adobe Illustrator 26.5.0, SVG Export Plug-In . SVG Version: 6.00 Build 0)  -->
<svg version="1.1" id="Layer_1" xmlns="http://www.w3.org/2000/svg" xmlns:xlink="http://www.w3.org/1999/xlink" x="0px" y="0px"
	 viewBox="0 0 1352.6 640.33" style="enable-background:new 0 0 1352.6 640.33;" xml:space="preserve">
<style type="text/css">
	.st0{fill:#B8D7EC;}
</style>
<g>
	<g>
		<path class="st0" d="M303.67,346.86h-12h-55.19v0c0,30.48,24.71,55.19,55.19,55.19h0h30.88l36.31,0
			C358.86,371.57,334.15,346.86,303.67,346.86z"/>
		<path class="st0" d="M236.48,291.67L236.48,291.67v-55.19h0c30.48,0,55.19,24.71,55.19,55.19v0v55.19h0
			C261.19,346.86,236.48,322.15,236.48,291.67z"/>
	</g>
	<g>
		<path class="st0" d="M415.77,402.07V236.48h0c15.33,0,27.75,12.42,27.75,27.75v137.83H415.77z"/>
		<path class="st0" d="M556.4,286.86L556.4,286.86c15.33,0,27.75,12.42,27.75,27.75v32.19c0,9.64-1.36,18.07-4.08,25.3
			c-2.72,7.23-6.57,13.29-11.54,18.19c-4.98,4.9-10.96,8.59-17.96,11.08c-7,2.48-14.77,3.73-23.32,3.73
			c-8.55,0-16.32-1.21-23.32-3.62c-7-2.41-12.98-6.06-17.96-10.96c-4.98-4.9-8.83-11-11.54-18.31c-2.72-7.31-4.08-15.78-4.08-25.42
			v-59.94h0c15.33,0,27.75,12.42,27.75,27.75v32.19c0,11.04,2.64,19.2,7.93,24.49c5.28,5.29,12.36,7.93,21.22,7.93
			c8.86,0,15.94-2.64,21.22-7.93c5.28-5.28,7.93-13.45,7.93-24.49V286.86z"/>
		<path class="st0" d="M681.4,402.07V336.3c0-9.33-2.22-16.09-6.65-20.29c-4.43-4.2-9.99-6.3-16.68-6.3
			c-6.84,0-12.44,2.06-16.79,6.18c-4.35,4.12-6.53,10.92-6.53,20.41v65.77H607V336.3c0-9.02,1.24-16.83,3.73-23.44
			c2.49-6.61,5.87-12.05,10.14-16.33c4.28-4.27,9.37-7.46,15.28-9.56c5.91-2.1,12.28-3.15,19.12-3.15c8.71,0,16.44,1.75,23.21,5.25
			c6.76,3.5,12.24,8.51,16.44,15.04h0.47c4.04-6.53,9.45-11.54,16.21-15.04c6.76-3.5,14.58-5.25,23.44-5.25
			c6.84,0,13.21,1.05,19.13,3.15c5.91,2.1,11,5.29,15.28,9.56c4.27,4.28,7.66,9.72,10.14,16.33c2.49,6.61,3.73,14.42,3.73,23.44
			v65.77h-27.75V336.3c0-9.48-2.18-16.29-6.53-20.41c-4.35-4.12-9.95-6.18-16.79-6.18c-6.69,0-12.21,2.1-16.56,6.3
			c-4.36,4.2-6.53,10.96-6.53,20.29v65.77H681.4z"/>
		<path class="st0" d="M810.13,402.07V286.86l0,0c15.33,0,27.75,12.43,27.75,27.75v87.46H810.13z"/>
		<path class="st0" d="M984.11,344.46c0,8.71-1.51,16.79-4.55,24.26c-3.03,7.46-7.31,13.88-12.83,19.24
			c-5.52,5.36-12.09,9.56-19.71,12.59c-7.62,3.03-15.94,4.55-24.95,4.55c-9.18,0-17.53-1.52-25.07-4.55
			c-7.54-3.03-14.07-7.23-19.59-12.59c-5.52-5.36-9.8-11.78-12.83-19.24c-3.03-7.46-4.55-15.54-4.55-24.26
			c0-8.7,1.52-16.79,4.55-24.25c3.03-7.46,7.31-13.88,12.83-19.24c5.52-5.36,12.05-9.56,19.59-12.59c7.54-3.03,15.9-4.55,25.07-4.55
			c9.02,0,17.33,1.51,24.95,4.55c7.62,3.03,14.19,7.23,19.71,12.59c5.52,5.36,9.8,11.78,12.83,19.24
			C982.6,327.67,984.11,335.76,984.11,344.46z M922.08,379.21c10.26,0,18.46-3.22,24.6-9.68c6.14-6.45,9.21-14.81,9.21-25.07
			c0-10.26-3.07-18.62-9.21-25.07c-6.14-6.45-14.34-9.68-24.6-9.68c-10.26,0-18.51,3.23-24.72,9.68
			c-6.22,6.45-9.33,14.81-9.33,25.07c0,10.26,3.11,18.62,9.33,25.07C903.57,375.99,911.82,379.21,922.08,379.21z"/>
		<path class="st0" d="M1088.36,402.07v-59.94c0-11.04-2.65-19.2-7.93-24.49c-5.29-5.28-12.36-7.93-21.22-7.93
			c-8.86,0-15.94,2.64-21.22,7.93c-5.29,5.29-7.93,13.45-7.93,24.49v59.94h-27.75v-59.94c0-9.64,1.36-18.07,4.08-25.3
			c2.72-7.23,6.57-13.29,11.54-18.19c4.98-4.9,10.96-8.59,17.96-11.08c7-2.49,14.77-3.73,23.32-3.73c8.55,0,16.32,1.21,23.32,3.61
			c7,2.41,12.98,6.06,17.96,10.96c4.97,4.9,8.82,11,11.54,18.31c2.72,7.31,4.08,15.78,4.08,25.42v59.94H1088.36z"/>
	</g>
</g>
</svg>
