<?xml version="1.0" standalone="no"?>
<!DOCTYPE svg PUBLIC "-//W3C//DTD SVG 20010904//EN"
 "http://www.w3.org/TR/2001/REC-SVG-20010904/DTD/svg10.dtd">
<svg version="1.0" xmlns="http://www.w3.org/2000/svg"
 width="979.000000pt" height="500.000000pt" viewBox="0 0 979.000000 500.000000"
 preserveAspectRatio="xMidYMid meet">

<g transform="translate(0.000000,500.000000) scale(0.100000,-0.100000)"
fill="#000000" stroke="none">
<path d="M2491 4975 c-1 -25 9 -41 57 -85 l57 -55 -52 55 c-32 34 -53 66 -56
85 l-4 30 -2 -30z"/>
<path d="M3655 4920 c44 -44 82 -80 85 -80 2 0 -31 36 -75 80 -44 44 -82 80
-85 80 -2 0 31 -36 75 -80z"/>
<path d="M4364 4870 c0 -74 1 -105 3 -67 2 37 2 97 0 135 -2 37 -3 6 -3 -68z"/>
<path d="M4672 4715 l-2 -289 -52 -56 -53 -55 58 55 57 56 -3 289 -2 290 -3
-290z"/>
<path d="M7162 4935 c-1 -39 -7 -76 -14 -83 -9 -9 -9 -15 1 -24 11 -11 12 -10
7 0 -4 7 -3 19 4 27 6 8 10 40 7 82 l-3 68 -2 -70z"/>
<path d="M7955 4980 c10 -11 20 -20 23 -20 3 0 -3 9 -13 20 -10 11 -20 20 -23
20 -3 0 3 -9 13 -20z"/>
<path d="M9035 4565 c0 -242 1 -340 2 -217 2 123 2 321 0 440 -1 119 -2 19 -2
-223z"/>
<path d="M499 4968 c24 -27 27 -28 125 -26 l101 2 -100 3 c-86 3 -103 7 -125
26 l-25 22 24 -27z"/>
<path d="M1662 4865 l-2 -129 -32 -36 -33 -35 38 35 38 36 -4 129 -3 130 -2
-130z"/>
<path d="M2183 4915 c0 -44 2 -61 4 -37 2 23 2 59 0 80 -2 20 -4 1 -4 -43z"/>
<path d="M3817 4970 c22 -25 23 -35 26 -235 l2 -210 3 211 2 211 -27 24 -28
24 22 -25z"/>
<path d="M7640 4986 c0 -2 8 -10 18 -17 15 -13 16 -12 3 4 -13 16 -21 21 -21
13z"/>
<path d="M8204 4825 c0 -93 2 -133 3 -88 2 45 2 122 0 170 -1 48 -3 12 -3 -82z"/>
<path d="M3513 4954 c-3 -8 -1 -20 6 -27 7 -7 11 -87 11 -257 l0 -246 38 -35
37 -34 -33 36 -33 36 3 251 c2 197 0 252 -9 252 -7 0 -13 6 -13 14 0 8 6 17
13 19 9 4 9 6 -1 6 -7 1 -15 -6 -19 -15z"/>
<path d="M1185 4950 l-50 -7 47 -1 c26 -1 50 3 53 8 3 6 5 9 3 8 -2 0 -25 -4
-53 -8z"/>
<path d="M2991 4943 c-1 -6 4 -15 9 -18 6 -4 10 -64 10 -148 l0 -141 -67 -71
-68 -70 73 70 72 69 0 143 c0 84 4 144 10 148 6 3 10 12 9 18 0 9 -2 9 -6 0
-2 -7 -11 -13 -18 -13 -7 0 -16 6 -18 13 -4 9 -6 9 -6 0z"/>
<path d="M8010 4942 c0 -6 -8 -13 -17 -15 -16 -4 -16 -5 -1 -6 18 -1 34 16 24
26 -3 4 -6 1 -6 -5z"/>
<path d="M9360 4942 c0 -7 -6 -12 -12 -12 -10 0 -12 -24 -10 -96 l3 -97 -53
-56 -53 -56 58 55 57 54 0 91 c0 57 4 95 12 103 6 6 9 15 5 19 -4 3 -7 1 -7
-5z"/>
<path d="M5300 4930 c-9 -6 -10 -10 -3 -10 6 0 15 5 18 10 8 12 4 12 -15 0z"/>
<path d="M7520 4898 c24 -27 45 -48 47 -48 8 0 0 9 -44 50 l-48 45 45 -47z"/>
<path d="M8620 4930 c-9 -6 -10 -10 -3 -10 6 0 15 5 18 10 8 12 4 12 -15 0z"/>
<path d="M8707 4929 c7 -7 15 -10 18 -7 3 3 -2 9 -12 12 -14 6 -15 5 -6 -5z"/>
<path d="M9760 4930 c-9 -6 -10 -10 -3 -10 6 0 15 5 18 10 8 12 4 12 -15 0z"/>
<path d="M5192 4848 c-1 -48 -6 -90 -12 -93 -5 -3 -10 -12 -10 -18 0 -8 2 -9
8 -1 4 6 12 13 17 15 6 2 8 38 4 94 l-5 90 -2 -87z"/>
<path d="M1353 4880 c0 -25 2 -35 4 -22 2 12 2 32 0 45 -2 12 -4 2 -4 -23z"/>
<path d="M6830 4845 c0 -6 5 -16 10 -21 7 -7 10 -77 8 -197 -2 -120 1 -187 7
-187 6 0 9 67 7 187 -2 120 1 190 8 197 5 5 10 14 10 20 0 5 -6 1 -14 -9 -13
-18 -13 -18 -24 1 -6 10 -12 14 -12 9z"/>
<path d="M7176 4833 c-6 -14 -5 -15 5 -6 7 7 10 15 7 18 -3 3 -9 -2 -12 -12z"/>
<path d="M3320 4539 c-3 -200 -2 -306 5 -306 6 0 9 72 7 201 -4 384 -7 409
-12 105z"/>
<path d="M5503 4700 c-2 -114 1 -149 12 -164 8 -11 15 -15 15 -10 0 6 -4 14
-10 20 -5 5 -11 75 -13 154 l-3 145 -1 -145z"/>
<path d="M6644 4695 c0 -82 2 -115 3 -72 2 43 2 110 0 150 -1 40 -3 5 -3 -78z"/>
<path d="M7195 4768 l-70 -73 73 70 c67 64 77 75 69 75 -1 0 -34 -33 -72 -72z"/>
<path d="M7835 4790 c27 -27 51 -50 54 -50 3 0 -17 23 -44 50 -27 28 -51 50
-54 50 -3 0 17 -22 44 -50z"/>
<path d="M7995 4485 c0 -198 1 -280 2 -183 2 97 2 259 0 360 -1 101 -2 21 -2
-177z"/>
<path d="M8513 4700 c-2 -114 1 -149 12 -164 8 -11 15 -15 15 -10 0 6 -4 14
-10 20 -5 5 -11 75 -13 154 l-3 145 -1 -145z"/>
<path d="M5660 4788 c24 -27 45 -48 47 -48 8 0 0 9 -44 50 l-48 45 45 -47z"/>
<path d="M8670 4788 c24 -27 45 -48 47 -48 8 0 0 9 -44 50 l-48 45 45 -47z"/>
<path d="M6230 4735 c47 -47 87 -85 90 -85 2 0 -33 38 -80 85 -47 47 -87 85
-90 85 -2 0 33 -38 80 -85z"/>
<path d="M312 4754 c9 -3 19 -13 22 -22 3 -12 4 -12 3 3 -1 12 -10 21 -22 22
-15 1 -15 0 -3 -3z"/>
<path d="M405 4750 c-3 -6 1 -7 9 -4 18 7 21 14 7 14 -6 0 -13 -4 -16 -10z"/>
<path d="M1335 4750 c-4 -6 -4 -14 -1 -17 3 -4 6 -1 6 5 0 15 26 16 33 2 3 -6
4 -5 3 2 -3 17 -32 22 -41 8z"/>
<path d="M2475 4750 c-4 -6 -4 -14 -1 -17 3 -4 6 -1 6 5 0 19 28 14 34 -5 4
-14 4 -14 3 2 -2 22 -31 32 -42 15z"/>
<path d="M4036 4751 c-4 -5 3 -7 14 -4 23 6 26 13 6 13 -8 0 -17 -4 -20 -9z"/>
<path d="M7045 4750 c-3 -6 1 -7 9 -4 18 7 21 14 7 14 -6 0 -13 -4 -16 -10z"/>
<path d="M7665 4749 c-4 -6 -4 -13 -1 -16 3 -4 6 -1 6 5 0 6 8 13 18 15 15 4
15 5 0 6 -9 0 -20 -4 -23 -10z"/>
<path d="M9535 4750 c-3 -6 1 -7 9 -4 18 7 21 14 7 14 -6 0 -13 -4 -16 -10z"/>
<path d="M7410 4673 l-65 -68 68 65 c37 35 67 66 67 67 0 8 -10 -2 -70 -64z"/>
<path d="M5714 4585 c0 -82 2 -115 3 -72 2 43 2 110 0 150 -1 40 -3 5 -3 -78z"/>
<path d="M250 4675 c-24 -25 -42 -45 -39 -45 3 0 25 20 49 45 24 25 42 45 39
45 -3 0 -25 -20 -49 -45z"/>
<path d="M1354 4625 c0 -55 1 -76 3 -47 2 29 2 74 0 100 -2 26 -3 2 -3 -53z"/>
<path d="M2494 4625 c0 -55 1 -76 3 -47 2 29 2 74 0 100 -2 26 -3 2 -3 -53z"/>
<path d="M7079 4653 l-34 -38 38 34 c34 33 42 41 34 41 -2 0 -19 -17 -38 -37z"/>
<path d="M1020 4636 c0 -8 4 -17 9 -20 5 -4 7 3 4 14 -6 23 -13 26 -13 6z"/>
<path d="M1667 4643 c-4 -3 -7 -54 -7 -113 l0 -106 53 -49 52 -50 -48 51 -48
51 3 112 c2 61 3 111 2 111 0 0 -4 -3 -7 -7z"/>
<path d="M4860 4636 c0 -8 4 -17 9 -20 5 -4 7 3 4 14 -6 23 -13 26 -13 6z"/>
<path d="M8180 4636 c0 -8 4 -17 9 -20 5 -4 7 3 4 14 -6 23 -13 26 -13 6z"/>
<path d="M9360 4626 c0 -8 4 -17 9 -20 5 -4 7 3 4 14 -6 23 -13 26 -13 6z"/>
<path d="M2377 4619 c7 -7 15 -10 18 -7 3 3 -2 9 -12 12 -14 6 -15 5 -6 -5z"/>
<path d="M5192 4593 c-1 -23 -6 -45 -12 -48 -5 -3 -10 -12 -10 -18 0 -7 6 -3
12 7 11 19 11 19 24 1 8 -10 14 -14 14 -9 0 6 -4 14 -9 20 -5 5 -11 27 -14 49
l-4 40 -1 -42z"/>
<path d="M6995 4568 l-40 -43 43 40 c23 21 42 40 42 42 0 8 -9 0 -45 -39z"/>
<path d="M834 4460 c0 -80 2 -112 3 -72 2 39 2 105 0 145 -1 39 -3 7 -3 -73z"/>
<path d="M7299 4563 l-34 -38 38 34 c34 33 42 41 34 41 -2 0 -19 -17 -38 -37z"/>
<path d="M4345 4539 c-4 -6 -5 -12 -2 -15 2 -3 7 2 10 11 7 17 1 20 -8 4z"/>
<path d="M4376 4537 c3 -10 9 -15 12 -12 3 3 0 11 -7 18 -10 9 -11 8 -5 -6z"/>
<path d="M2180 4423 l-105 -108 108 105 c99 97 112 110 104 110 -1 0 -50 -48
-107 -107z"/>
<path d="M2545 4480 l-49 -49 -105 -4 -106 -3 105 -2 106 -2 54 55 c30 30 52
55 49 55 -2 0 -27 -22 -54 -50z"/>
<path d="M4040 4225 c168 -168 307 -305 310 -305 3 0 -132 137 -300 305 -168
168 -307 305 -310 305 -3 0 132 -137 300 -305z"/>
<path d="M5450 4478 c52 -55 57 -58 100 -56 l45 1 -45 4 c-38 4 -54 12 -100
56 l-55 52 55 -57z"/>
<path d="M5870 4485 c-24 -25 -42 -45 -39 -45 3 0 25 20 49 45 24 25 42 45 39
45 -3 0 -25 -20 -49 -45z"/>
<path d="M6022 4480 c-2 -51 -5 -58 -54 -110 l-53 -55 58 56 58 55 -4 55 -3
54 -2 -55z"/>
<path d="M8460 4478 c52 -55 57 -58 100 -56 l45 1 -45 4 c-38 4 -54 12 -100
56 l-55 52 55 -57z"/>
<path d="M9652 4481 c-2 -44 -7 -61 -29 -85 l-28 -31 33 31 c31 28 33 34 29
85 l-3 54 -2 -54z"/>
<path d="M6282 4475 l48 -50 3 -210 2 -210 3 210 2 211 -52 49 -53 50 47 -50z"/>
<path d="M8152 4475 l47 -50 4 -150 3 -150 2 150 2 151 -52 49 -53 50 47 -50z"/>
<path d="M1024 4435 c-7 -17 3 -35 19 -34 9 0 9 2 0 6 -7 2 -13 11 -13 18 0 7
6 16 13 18 9 4 9 6 -1 6 -7 1 -15 -6 -18 -14z"/>
<path d="M1366 4437 c3 -10 9 -15 12 -12 3 3 0 11 -7 18 -10 9 -11 8 -5 -6z"/>
<path d="M3930 4446 c0 -2 9 -6 20 -9 11 -3 18 -1 14 4 -5 9 -34 13 -34 5z"/>
<path d="M4864 4435 c-7 -17 3 -35 19 -34 9 0 9 2 0 6 -7 2 -13 11 -13 18 0 7
6 16 13 18 9 4 9 6 -1 6 -7 1 -15 -6 -18 -14z"/>
<path d="M6120 4446 c0 -2 7 -7 16 -10 8 -3 12 -2 9 4 -6 10 -25 14 -25 6z"/>
<path d="M6523 4435 c-3 -9 -3 -19 1 -22 3 -4 6 1 6 10 0 8 6 18 13 20 9 4 9
6 -1 6 -7 1 -15 -6 -19 -14z"/>
<path d="M6640 4446 c0 -2 7 -7 16 -10 8 -3 12 -2 9 4 -6 10 -25 14 -25 6z"/>
<path d="M5190 3647 l5 -792 3 784 c1 432 -1 788 -5 792 -5 5 -6 -348 -3 -784z"/>
<path d="M1213 4423 c9 -2 23 -2 30 0 6 3 -1 5 -18 5 -16 0 -22 -2 -12 -5z"/>
<path d="M4290 4424 c83 -8 188 -8 183 -1 -2 4 -52 6 -111 5 -59 -1 -91 -3
-72 -4z"/>
<path d="M3950 4410 c-9 -6 -10 -10 -3 -10 6 0 15 5 18 10 8 12 4 12 -15 0z"/>
<path d="M4205 4370 c27 -27 51 -50 54 -50 3 0 -17 23 -44 50 -27 28 -51 50
-54 50 -3 0 17 -22 44 -50z"/>
<path d="M5610 4410 c-9 -6 -10 -10 -3 -10 6 0 15 5 18 10 8 12 4 12 -15 0z"/>
<path d="M8620 4410 c-9 -6 -10 -10 -3 -10 6 0 15 5 18 10 8 12 4 12 -15 0z"/>
<path d="M9450 4410 c-9 -6 -10 -10 -3 -10 6 0 15 5 18 10 8 12 4 12 -15 0z"/>
<path d="M1410 4368 c24 -27 45 -48 47 -48 8 0 0 9 -44 50 l-48 45 45 -47z"/>
<path d="M3014 4260 c0 -85 2 -120 3 -77 2 42 2 112 0 155 -1 42 -3 7 -3 -78z"/>
<path d="M7678 4165 c-2 -135 0 -245 5 -245 4 0 7 110 7 245 0 135 -2 245 -5
245 -2 0 -6 -110 -7 -245z"/>
<path d="M2719 4343 c-13 -16 -12 -17 4 -4 16 13 21 21 13 21 -2 0 -10 -8 -17
-17z"/>
<path d="M3610 4346 c0 -2 8 -10 18 -17 15 -13 16 -12 3 4 -13 16 -21 21 -21
13z"/>
<path d="M4650 4323 c0 -6 5 -15 10 -18 6 -4 10 -78 10 -190 0 -112 -4 -186
-10 -190 -5 -3 -10 -12 -9 -18 0 -9 2 -9 6 1 2 6 11 12 18 12 7 0 16 -6 18
-12 4 -10 6 -10 6 -1 1 6 -3 15 -9 18 -6 4 -10 78 -10 190 0 112 4 186 10 190
6 3 10 11 10 18 0 6 -6 2 -14 -8 -13 -18 -13 -18 -24 1 -6 10 -12 14 -12 7z"/>
<path d="M1663 4270 c0 -30 2 -43 4 -27 2 15 2 39 0 55 -2 15 -4 2 -4 -28z"/>
<path d="M2184 4070 c0 -140 2 -198 3 -127 2 70 2 184 0 255 -1 70 -3 12 -3
-128z"/>
<path d="M3840 4018 c-3 -168 -2 -304 2 -302 4 3 11 -4 17 -13 6 -10 11 -13
11 -7 0 5 -4 14 -10 20 -6 6 -11 130 -12 309 l-3 300 -5 -307z"/>
<path d="M5345 4268 l-50 -53 53 50 c48 46 57 55 49 55 -1 0 -25 -24 -52 -52z"/>
<path d="M7160 4123 c-3 -110 -2 -199 2 -197 4 2 11 -4 17 -13 6 -10 11 -13
11 -8 0 6 -4 15 -10 21 -5 5 -11 95 -12 204 l-3 195 -5 -202z"/>
<path d="M5644 4258 l-29 -33 33 29 c17 17 32 31 32 33 0 8 -8 1 -36 -29z"/>
<path d="M2314 4248 l-29 -33 33 29 c17 17 32 31 32 33 0 8 -8 1 -36 -29z"/>
<path d="M4930 4205 c30 -30 57 -55 59 -55 3 0 -19 25 -49 55 -30 30 -57 55
-59 55 -3 0 19 -25 49 -55z"/>
<path d="M2816 4227 c3 -10 9 -15 12 -12 3 3 0 11 -7 18 -10 9 -11 8 -5 -6z"/>
<path d="M5516 4227 c3 -10 9 -15 12 -12 3 3 0 11 -7 18 -10 9 -11 8 -5 -6z"/>
<path d="M8495 4229 c-4 -6 -5 -12 -2 -15 2 -3 7 2 10 11 7 17 1 20 -8 4z"/>
<path d="M8526 4227 c3 -10 9 -15 12 -12 3 3 0 11 -7 18 -10 9 -11 8 -5 -6z"/>
<path d="M9344 4065 c0 -88 2 -123 3 -77 2 46 2 118 0 160 -1 42 -3 5 -3 -83z"/>
<path d="M2740 4155 c-24 -25 -42 -45 -39 -45 3 0 25 20 49 45 24 25 42 45 39
45 -3 0 -25 -20 -49 -45z"/>
<path d="M5503 4165 c0 -22 2 -30 4 -17 2 12 2 30 0 40 -3 9 -5 -1 -4 -23z"/>
<path d="M5713 4160 c0 -25 2 -35 4 -22 2 12 2 32 0 45 -2 12 -4 2 -4 -23z"/>
<path d="M9665 4100 c49 -49 92 -90 95 -90 2 0 -36 41 -85 90 -49 50 -92 90
-95 90 -2 0 36 -40 85 -90z"/>
<path d="M2522 4147 l-31 -32 -3 -357 c-2 -196 0 -354 4 -352 4 3 11 -4 17
-13 6 -10 11 -13 11 -6 0 6 -4 15 -10 18 -6 4 -10 134 -10 358 l0 351 32 33
c18 18 30 33 27 33 -3 0 -19 -15 -37 -33z"/>
<path d="M6641 4144 c0 -11 3 -14 6 -6 3 7 2 16 -1 19 -3 4 -6 -2 -5 -13z"/>
<path d="M406 4132 c-2 -4 4 -8 14 -8 10 0 16 4 14 8 -3 4 -9 8 -14 8 -5 0
-11 -4 -14 -8z"/>
<path d="M926 4132 c-2 -4 4 -8 14 -8 10 0 16 4 14 8 -3 4 -9 8 -14 8 -5 0
-11 -4 -14 -8z"/>
<path d="M4766 4132 c-2 -4 4 -8 14 -8 10 0 16 4 14 8 -3 4 -9 8 -14 8 -5 0
-11 -4 -14 -8z"/>
<path d="M5385 4130 c-3 -6 1 -7 9 -4 18 7 21 14 7 14 -6 0 -13 -4 -16 -10z"/>
<path d="M7776 4132 c-2 -4 4 -8 14 -8 10 0 16 4 14 8 -3 4 -9 8 -14 8 -5 0
-11 -4 -14 -8z"/>
<path d="M9440 4136 c0 -2 7 -7 16 -10 8 -3 12 -2 9 4 -6 10 -25 14 -25 6z"/>
<path d="M8183 4116 c1 -11 9 -21 17 -23 10 -3 11 -2 4 4 -6 4 -14 15 -17 23
-5 11 -6 9 -4 -4z"/>
<path d="M5963 4113 c15 -2 37 -2 50 0 12 2 0 4 -28 4 -27 0 -38 -2 -22 -4z"/>
<path d="M6831 4113 c-1 -6 4 -15 9 -18 6 -4 11 -120 12 -308 l3 -302 2 299
c2 204 7 304 15 313 6 7 8 16 4 20 -3 3 -6 1 -6 -5 0 -16 -27 -15 -33 1 -4 9
-6 9 -6 0z"/>
<path d="M7320 4063 l-55 -58 58 55 c31 30 57 56 57 57 0 8 -10 -1 -60 -54z"/>
<path d="M8010 4112 c0 -6 -8 -13 -17 -15 -16 -4 -16 -5 -1 -6 18 -1 34 16 24
26 -3 4 -6 1 -6 -5z"/>
<path d="M9010 4111 c0 -10 19 -25 25 -20 1 2 -3 10 -11 17 -8 7 -14 8 -14 3z"/>
<path d="M630 4100 c-9 -6 -10 -10 -3 -10 6 0 15 5 18 10 8 12 4 12 -15 0z"/>
<path d="M940 4100 c-9 -6 -10 -10 -3 -10 6 0 15 5 18 10 8 12 4 12 -15 0z"/>
<path d="M4780 4100 c-13 -8 -12 -10 3 -10 9 0 17 5 17 10 0 12 -1 12 -20 0z"/>
<path d="M5387 4099 c7 -7 15 -10 18 -7 3 3 -2 9 -12 12 -14 6 -15 5 -6 -5z"/>
<path d="M5865 4060 c27 -27 51 -50 54 -50 3 0 -17 23 -44 50 -27 28 -51 50
-54 50 -3 0 17 -22 44 -50z"/>
<path d="M6217 4099 c7 -7 15 -10 18 -7 3 3 -2 9 -12 12 -14 6 -15 5 -6 -5z"/>
<path d="M6650 4100 c-9 -6 -10 -10 -3 -10 6 0 15 5 18 10 8 12 4 12 -15 0z"/>
<path d="M7790 4100 c-9 -6 -10 -10 -3 -10 6 0 15 5 18 10 8 12 4 12 -15 0z"/>
<path d="M8310 4100 c-9 -6 -10 -10 -3 -10 6 0 15 5 18 10 8 12 4 12 -15 0z"/>
<path d="M1355 3640 c0 -256 1 -360 2 -233 2 128 2 338 0 465 -1 128 -2 24 -2
-232z"/>
<path d="M1662 4003 c-1 -57 1 -103 6 -103 4 0 6 33 4 72 -4 125 -9 137 -10
31z"/>
<path d="M8618 4093 c7 -3 16 -2 19 1 4 3 -2 6 -13 5 -11 0 -14 -3 -6 -6z"/>
<path d="M8590 4036 c0 -2 8 -10 18 -17 15 -13 16 -12 3 4 -13 16 -21 21 -21
13z"/>
<path d="M1851 4014 c0 -11 3 -14 6 -6 3 7 2 16 -1 19 -3 4 -6 -2 -5 -13z"/>
<path d="M4341 4014 c0 -11 3 -14 6 -6 3 7 2 16 -1 19 -3 4 -6 -2 -5 -13z"/>
<path d="M4374 4010 c0 -13 4 -16 10 -10 7 7 7 13 0 20 -6 6 -10 3 -10 -10z"/>
<path d="M9634 4019 c-3 -6 -2 -15 3 -20 5 -5 9 -1 9 11 0 23 -2 24 -12 9z"/>
<path d="M9666 4005 c-3 -8 -1 -15 4 -15 6 0 10 7 10 15 0 8 -2 15 -4 15 -2 0
-6 -7 -10 -15z"/>
<path d="M314 3810 c0 -113 2 -159 3 -102 2 56 2 148 0 205 -1 56 -3 10 -3
-103z"/>
<path d="M3380 3965 c-24 -25 -42 -45 -39 -45 3 0 25 20 49 45 24 25 42 45 39
45 -3 0 -25 -20 -49 -45z"/>
<path d="M8966 3970 c23 -25 44 -52 46 -59 4 -13 5 -13 9 0 3 8 -15 32 -45 59
l-51 44 41 -44z"/>
<path d="M9495 3960 c27 -27 51 -50 54 -50 3 0 -17 23 -44 50 -27 28 -51 50
-54 50 -3 0 17 -22 44 -50z"/>
<path d="M5504 3905 c0 -49 1 -71 3 -48 2 23 2 64 0 90 -2 26 -3 8 -3 -42z"/>
<path d="M8513 3950 c0 -25 2 -35 4 -22 2 12 2 32 0 45 -2 12 -4 2 -4 -23z"/>
<path d="M6315 3888 l-90 -93 93 90 c50 49 92 91 92 92 0 8 -12 -4 -95 -89z"/>
<path d="M4075 3880 c44 -44 82 -80 85 -80 2 0 -31 36 -75 80 -44 44 -82 80
-85 80 -2 0 31 -36 75 -80z"/>
<path d="M504 3915 c-4 -9 -4 -19 0 -22 3 -4 6 1 6 10 0 18 25 23 33 7 3 -6 4
-5 3 2 -4 19 -35 22 -42 3z"/>
<path d="M9130 3926 c0 -2 7 -7 16 -10 8 -3 12 -2 9 4 -6 10 -25 14 -25 6z"/>
<path d="M9635 3920 c-4 -6 -4 -14 -1 -17 3 -4 6 -1 6 5 0 15 26 16 33 2 3 -6
4 -5 3 2 -3 17 -32 22 -41 8z"/>
<path d="M1090 3855 c30 -30 57 -55 59 -55 3 0 -19 25 -49 55 -30 30 -57 55
-59 55 -3 0 19 -25 49 -55z"/>
<path d="M3060 3545 c201 -201 367 -365 370 -365 3 0 -159 164 -360 365 -201
201 -367 365 -370 365 -3 0 159 -164 360 -365z"/>
<path d="M4362 3558 c-1 -245 1 -359 9 -363 6 -4 8 -14 4 -24 -5 -12 -4 -13 6
-4 9 9 9 16 1 26 -8 10 -13 120 -15 368 l-2 354 -3 -357z"/>
<path d="M9240 3906 c0 -2 8 -10 18 -17 15 -13 16 -12 3 4 -13 16 -21 21 -21
13z"/>
<path d="M522 3850 c-2 -39 -9 -51 -54 -100 l-53 -55 58 56 c56 54 58 57 54
100 l-4 44 -1 -45z"/>
<path d="M8450 3845 c-24 -25 -42 -45 -39 -45 3 0 25 20 49 45 24 25 42 45 39
45 -3 0 -25 -20 -49 -45z"/>
<path d="M9654 3640 c0 -140 2 -198 3 -127 2 70 2 184 0 255 -1 70 -3 12 -3
-128z"/>
<path d="M1851 3804 c0 -11 3 -14 6 -6 3 7 2 16 -1 19 -3 4 -6 -2 -5 -13z"/>
<path d="M1676 3795 c-3 -9 -9 -14 -13 -12 -5 3 -7 -39 -5 -92 l3 -98 57 -54
57 -54 -52 55 -53 56 0 90 c0 56 4 94 12 102 6 6 9 14 6 17 -3 3 -8 -1 -12
-10z"/>
<path d="M2164 3798 c2 -7 11 -13 21 -13 10 0 19 6 21 13 1 7 0 8 -3 2 -2 -5
-11 -10 -18 -10 -7 0 -16 5 -18 10 -3 6 -4 5 -3 -2z"/>
<path d="M4651 3802 c-1 -7 7 -15 17 -18 9 -3 24 -9 33 -14 14 -7 15 -5 5 15
-6 14 -12 20 -14 15 -5 -14 -29 -12 -35 3 -4 9 -6 9 -6 -1z"/>
<path d="M6000 3801 c0 -6 4 -13 10 -16 6 -3 7 1 4 9 -7 18 -14 21 -14 7z"/>
<path d="M6036 3793 c-6 -14 -5 -15 5 -6 7 7 10 15 7 18 -3 3 -9 -2 -12 -12z"/>
<path d="M8526 3795 c-3 -9 -9 -14 -13 -12 -5 3 -7 -39 -5 -92 l3 -98 57 -54
57 -54 -52 55 -53 56 0 90 c0 56 4 94 12 102 6 6 9 14 6 17 -3 3 -8 -1 -12
-10z"/>
<path d="M8839 3799 c-3 -8 15 -32 45 -59 l51 -44 -41 44 c-23 25 -44 52 -46
59 -4 13 -5 13 -9 0z"/>
<path d="M8005 3790 c-3 -5 -1 -10 4 -10 6 0 11 5 11 10 0 6 -2 10 -4 10 -3 0
-8 -4 -11 -10z"/>
<path d="M9537 3789 c7 -7 15 -10 18 -7 3 3 -2 9 -12 12 -14 6 -15 5 -6 -5z"/>
<path d="M8060 3735 c19 -19 36 -35 39 -35 3 0 -10 16 -29 35 -19 19 -36 35
-39 35 -3 0 10 -16 29 -35z"/>
<path d="M4655 3709 c-4 -6 -5 -12 -2 -15 2 -3 7 2 10 11 7 17 1 20 -8 4z"/>
<path d="M4686 3707 c3 -10 9 -15 12 -12 3 3 0 11 -7 18 -10 9 -11 8 -5 -6z"/>
<path d="M5516 3707 c3 -10 9 -15 12 -12 3 3 0 11 -7 18 -10 9 -11 8 -5 -6z"/>
<path d="M7181 3694 c0 -11 3 -14 6 -6 3 7 2 16 -1 19 -3 4 -6 -2 -5 -13z"/>
<path d="M1229 3683 c-13 -16 -12 -17 4 -4 9 7 17 15 17 17 0 8 -8 3 -21 -13z"/>
<path d="M5958 3660 c23 -25 42 -55 43 -65 0 -15 2 -16 6 -5 3 8 11 18 17 22
7 5 6 8 -4 8 -8 0 -35 19 -60 43 l-45 42 43 -45z"/>
<path d="M7160 3598 c57 -60 106 -108 107 -108 8 0 -5 13 -104 110 l-108 105
105 -107z"/>
<path d="M8202 3545 l-2 -161 58 -54 57 -55 -52 55 -52 55 -4 160 -3 160 -2
-160z"/>
<path d="M9345 3305 c0 -220 1 -309 2 -197 2 112 2 292 0 400 -1 108 -2 17 -2
-203z"/>
<path d="M4674 3430 c0 -140 2 -198 3 -127 2 70 2 184 0 255 -1 70 -3 12 -3
-128z"/>
<path d="M5502 3588 c-1 -53 1 -99 6 -101 4 -3 6 27 4 66 -4 122 -9 136 -10
35z"/>
<path d="M9034 3585 c0 -55 1 -76 3 -47 2 29 2 74 0 100 -2 26 -3 2 -3 -53z"/>
<path d="M211 3620 c-1 -19 14 -40 57 -80 l57 -55 -52 55 c-28 30 -53 66 -56
80 l-4 25 -2 -25z"/>
<path d="M8800 3615 c13 -14 26 -25 28 -25 3 0 -5 11 -18 25 -13 14 -26 25
-28 25 -3 0 5 -11 18 -25z"/>
<path d="M1760 3616 c0 -2 7 -7 16 -10 8 -3 12 -2 9 4 -6 10 -25 14 -25 6z"/>
<path d="M3200 3610 c0 -5 7 -7 15 -4 8 4 15 8 15 10 0 2 -7 4 -15 4 -8 0 -15
-4 -15 -10z"/>
<path d="M3328 3613 c15 -6 16 -33 0 -33 -6 0 -8 -3 -5 -6 4 -4 13 -2 21 5 10
8 67 11 199 9 102 -2 183 0 180 5 -2 4 -87 7 -188 7 -112 0 -186 4 -190 10 -3
6 -12 10 -18 9 -9 0 -9 -2 1 -6z"/>
<path d="M3940 3616 c0 -2 7 -6 15 -10 8 -3 15 -1 15 4 0 6 -7 10 -15 10 -8 0
-15 -2 -15 -4z"/>
<path d="M5385 3610 c-3 -5 -25 -11 -48 -12 l-42 -1 40 -4 c22 -3 44 -9 50
-14 5 -5 13 -9 19 -9 5 0 1 6 -9 14 -18 13 -18 13 1 24 10 6 14 12 7 12 -6 0
-15 -4 -18 -10z"/>
<path d="M9535 3610 c-3 -6 1 -7 9 -4 18 7 21 14 7 14 -6 0 -13 -4 -16 -10z"/>
<path d="M738 3593 c56 -2 148 -2 205 0 56 1 10 3 -103 3 -113 0 -159 -2 -102
-3z"/>
<path d="M4083 3593 c15 -2 39 -2 55 0 15 2 2 4 -28 4 -30 0 -43 -2 -27 -4z"/>
<path d="M5708 3593 c39 -2 105 -2 145 0 39 1 7 3 -73 3 -80 0 -112 -2 -72 -3z"/>
<path d="M7478 3593 c117 -2 306 -2 420 0 114 1 18 2 -213 2 -231 0 -324 -1
-207 -2z"/>
<path d="M1770 3580 c-9 -6 -10 -10 -3 -10 6 0 15 5 18 10 8 12 4 12 -15 0z"/>
<path d="M3207 3579 c7 -7 15 -10 18 -7 3 3 -2 9 -12 12 -14 6 -15 5 -6 -5z"/>
<path d="M3950 3580 c-9 -6 -10 -10 -3 -10 6 0 15 5 18 10 8 12 4 12 -15 0z"/>
<path d="M3510 3491 c0 -6 4 -13 10 -16 6 -3 7 1 4 9 -7 18 -14 21 -14 7z"/>
<path d="M6346 3483 c-6 -14 -5 -15 5 -6 7 7 10 15 7 18 -3 3 -9 -2 -12 -12z"/>
<path d="M7660 3491 c0 -6 4 -13 10 -16 6 -3 7 1 4 9 -7 18 -14 21 -14 7z"/>
<path d="M150 3444 c25 -27 47 -49 50 -47 2 2 -18 25 -45 51 l-49 47 44 -51z"/>
<path d="M6220 3395 c52 -52 97 -95 100 -95 2 0 -38 43 -90 95 -52 52 -97 95
-100 95 -2 0 38 -43 90 -95z"/>
<path d="M3585 3330 c82 -82 152 -150 155 -150 2 0 -63 68 -145 150 -82 83
-152 150 -155 150 -2 0 63 -67 145 -150z"/>
<path d="M6369 3426 c-19 -16 -24 -27 -18 -37 7 -12 9 -12 9 0 0 8 10 25 22
38 28 30 21 29 -13 -1z"/>
<path d="M6835 3399 c-4 -6 -5 -12 -2 -15 2 -3 7 2 10 11 7 17 1 20 -8 4z"/>
<path d="M7176 3397 c3 -10 9 -15 12 -12 3 3 0 11 -7 18 -10 9 -11 8 -5 -6z"/>
<path d="M8006 3397 c3 -10 9 -15 12 -12 3 3 0 11 -7 18 -10 9 -11 8 -5 -6z"/>
<path d="M8495 3399 c-4 -6 -5 -12 -2 -15 2 -3 7 2 10 11 7 17 1 20 -8 4z"/>
<path d="M8526 3397 c3 -10 9 -15 12 -12 3 3 0 11 -7 18 -10 9 -11 8 -5 -6z"/>
<path d="M9015 3399 c-4 -6 -5 -12 -2 -15 2 -3 7 2 10 11 7 17 1 20 -8 4z"/>
<path d="M3341 3384 c0 -11 3 -14 6 -6 3 7 2 16 -1 19 -3 4 -6 -2 -5 -13z"/>
<path d="M834 3295 c0 -55 1 -76 3 -47 2 29 2 74 0 100 -2 26 -3 2 -3 -53z"/>
<path d="M3842 3340 c-2 -56 -2 -56 56 -110 l57 -55 -52 55 c-48 50 -52 60
-56 110 l-3 55 -2 -55z"/>
<path d="M6025 3035 c0 -198 1 -280 2 -183 2 97 2 259 0 360 -1 101 -2 21 -2
-177z"/>
<path d="M7632 3335 l48 -50 3 -305 2 -305 3 305 2 306 -52 49 -53 50 47 -50z"/>
<path d="M522 3329 c-2 -37 3 -50 21 -65 22 -19 22 -19 5 1 -9 11 -18 40 -21
65 l-4 45 -1 -46z"/>
<path d="M1664 3170 c0 -113 2 -159 3 -102 2 56 2 148 0 205 -1 56 -3 10 -3
-103z"/>
<path d="M7994 3275 c0 -55 1 -76 3 -47 2 29 2 74 0 100 -2 26 -3 2 -3 -53z"/>
<path d="M9034 3180 c0 -107 2 -151 3 -97 2 53 2 141 0 195 -1 53 -3 9 -3 -98z"/>
<path d="M5035 3270 c27 -27 51 -50 54 -50 3 0 -17 23 -44 50 -27 28 -51 50
-54 50 -3 0 17 -22 44 -50z"/>
<path d="M1450 3306 c0 -2 7 -7 16 -10 8 -3 12 -2 9 4 -6 10 -25 14 -25 6z"/>
<path d="M5290 3306 c0 -2 7 -7 16 -10 8 -3 12 -2 9 4 -6 10 -25 14 -25 6z"/>
<path d="M7480 3303 c15 -7 12 -31 -5 -36 -11 -4 -10 -4 2 -3 21 2 25 38 5 42
-7 1 -8 0 -2 -3z"/>
<path d="M7776 3302 c-2 -4 4 -8 14 -8 10 0 16 4 14 8 -3 4 -9 8 -14 8 -5 0
-11 -4 -14 -8z"/>
<path d="M8086 3302 c-2 -4 4 -8 14 -8 10 0 16 4 14 8 -3 4 -9 8 -14 8 -5 0
-11 -4 -14 -8z"/>
<path d="M3118 3293 c-49 -2 -88 -8 -88 -13 0 -14 -27 -12 -33 3 -4 9 -6 9 -6
-1 -1 -18 28 -27 42 -13 6 6 44 11 88 11 43 0 81 5 84 10 3 6 5 9 3 8 -2 -1
-42 -4 -90 -5z"/>
<path d="M53 3283 c32 -2 81 -2 110 0 29 2 3 3 -58 3 -61 0 -84 -1 -52 -3z"/>
<path d="M2127 3283 l52 -4 4 -97 3 -97 2 103 2 102 -57 -2 -58 -2 52 -3z"/>
<path d="M3513 3280 c2 -8 12 -16 23 -17 13 -2 15 -1 4 4 -8 3 -19 11 -23 17
-6 7 -7 6 -4 -4z"/>
<path d="M7158 3283 c56 -2 148 -2 205 0 56 1 10 3 -103 3 -113 0 -159 -2
-102 -3z"/>
<path d="M9768 3283 c7 -3 16 -2 19 1 4 3 -2 6 -13 5 -11 0 -14 -3 -6 -6z"/>
<path d="M1460 3270 c-9 -6 -10 -10 -3 -10 6 0 15 5 18 10 8 12 4 12 -15 0z"/>
<path d="M2377 3269 c7 -7 15 -10 18 -7 3 3 -2 9 -12 12 -14 6 -15 5 -6 -5z"/>
<path d="M4515 3230 c27 -27 51 -50 54 -50 3 0 -17 23 -44 50 -27 28 -51 50
-54 50 -3 0 17 -22 44 -50z"/>
<path d="M4557 3269 c7 -7 15 -10 18 -7 3 3 -2 9 -12 12 -14 6 -15 5 -6 -5z"/>
<path d="M5300 3270 c-9 -6 -10 -10 -3 -10 6 0 15 5 18 10 8 12 4 12 -15 0z"/>
<path d="M7790 3270 c-9 -6 -10 -10 -3 -10 6 0 15 5 18 10 8 12 4 12 -15 0z"/>
<path d="M9185 3230 c27 -27 51 -50 54 -50 3 0 -17 23 -44 50 -27 28 -51 50
-54 50 -3 0 17 -22 44 -50z"/>
<path d="M9227 3269 c7 -7 15 -10 18 -7 3 3 -2 9 -12 12 -14 6 -15 5 -6 -5z"/>
<path d="M2474 3189 c-3 -6 -2 -15 3 -20 5 -5 9 -1 9 11 0 23 -2 24 -12 9z"/>
<path d="M2504 3179 c0 -10 4 -19 8 -19 4 0 8 6 8 14 0 8 -4 17 -8 20 -4 2 -8
-4 -8 -15z"/>
<path d="M2994 3189 c-3 -6 -2 -15 3 -20 5 -5 9 -1 9 11 0 23 -2 24 -12 9z"/>
<path d="M3024 3180 c0 -13 4 -16 10 -10 7 7 7 13 0 20 -6 6 -10 3 -10 -10z"/>
<path d="M8214 3180 c0 -13 4 -16 10 -10 7 7 7 13 0 20 -6 6 -10 3 -10 -10z"/>
<path d="M8181 3174 c0 -11 3 -14 6 -6 3 7 2 16 -1 19 -3 4 -6 -2 -5 -13z"/>
<path d="M465 3130 c27 -27 51 -50 54 -50 3 0 -17 23 -44 50 -27 28 -51 50
-54 50 -3 0 17 -22 44 -50z"/>
<path d="M3534 3025 c0 -88 2 -123 3 -77 2 46 2 118 0 160 -1 42 -3 5 -3 -83z"/>
<path d="M3842 3142 c-1 -27 4 -49 13 -58 8 -9 15 -12 15 -7 0 5 -4 13 -9 19
-5 5 -11 27 -14 49 l-4 40 -1 -43z"/>
<path d="M4298 3140 c23 -25 42 -52 42 -60 0 -10 3 -11 8 -4 4 6 14 14 22 17
11 4 10 6 -5 6 -10 1 -40 20 -65 44 l-45 42 43 -45z"/>
<path d="M4810 3145 c19 -19 36 -35 39 -35 3 0 -10 16 -29 35 -19 19 -36 35
-39 35 -3 0 10 -16 29 -35z"/>
<path d="M820 3063 l-95 -98 98 95 c90 88 102 100 94 100 -1 0 -45 -44 -97
-97z"/>
<path d="M6334 3075 c0 -49 1 -71 3 -48 2 23 2 64 0 90 -2 26 -3 8 -3 -42z"/>
<path d="M8470 3118 c42 -46 46 -48 95 -46 l50 2 -50 3 c-42 4 -57 11 -95 46
l-45 42 45 -47z"/>
<path d="M2690 3095 c-11 -13 -10 -14 4 -9 9 3 16 10 16 15 0 13 -6 11 -20 -6z"/>
<path d="M8820 3106 c0 -4 7 -14 15 -22 8 -9 15 -11 15 -6 0 5 -7 15 -15 22
-8 7 -15 9 -15 6z"/>
<path d="M1130 3096 c0 -2 9 -6 20 -9 11 -3 18 -1 14 4 -5 9 -34 13 -34 5z"/>
<path d="M1450 3096 c0 -2 7 -7 16 -10 8 -3 12 -2 9 4 -6 10 -25 14 -25 6z"/>
<path d="M1855 3089 c-4 -6 -5 -12 -2 -15 2 -3 7 2 10 11 7 17 1 20 -8 4z"/>
<path d="M2375 3090 c-3 -6 1 -7 9 -4 18 7 21 14 7 14 -6 0 -13 -4 -16 -10z"/>
<path d="M2995 3090 c-4 -6 -4 -14 -1 -17 3 -4 6 -1 6 5 0 15 26 16 33 2 3 -6
4 -5 3 2 -3 17 -32 22 -41 8z"/>
<path d="M3320 3093 c8 -3 19 -11 23 -17 6 -7 7 -6 4 4 -2 8 -12 16 -23 17
-13 2 -15 1 -4 -4z"/>
<path d="M4860 3090 c0 -5 7 -7 15 -4 8 4 15 8 15 10 0 2 -7 4 -15 4 -8 0 -15
-4 -15 -10z"/>
<path d="M5290 3096 c0 -2 7 -7 16 -10 8 -3 12 -2 9 4 -6 10 -25 14 -25 6z"/>
<path d="M5512 3086 c7 -8 15 -12 17 -11 5 6 -10 25 -20 25 -5 0 -4 -6 3 -14z"/>
<path d="M6523 3085 c-3 -9 -3 -19 1 -22 3 -4 6 1 6 10 0 8 6 18 13 20 9 4 9
6 -1 6 -7 1 -15 -6 -19 -14z"/>
<path d="M6848 3093 c7 -3 16 -2 19 1 4 3 -2 6 -13 5 -11 0 -14 -3 -6 -6z"/>
<path d="M7780 3096 c0 -2 7 -7 16 -10 8 -3 12 -2 9 4 -6 10 -25 14 -25 6z"/>
<path d="M9535 3089 c-11 -16 -1 -19 13 -3 7 8 8 14 3 14 -5 0 -13 -5 -16 -11z"/>
<path d="M2447 3073 l43 -4 3 -257 2 -257 3 263 2 262 -47 -2 -48 -1 42 -4z"/>
<path d="M8750 3045 c19 -19 36 -35 39 -35 3 0 -10 16 -29 35 -19 19 -36 35
-39 35 -3 0 10 -16 29 -35z"/>
<path d="M3070 3018 c24 -27 45 -48 47 -48 8 0 0 9 -44 50 l-48 45 45 -47z"/>
<path d="M5504 2975 c0 -49 1 -71 3 -48 2 23 2 64 0 90 -2 26 -3 8 -3 -42z"/>
<path d="M6852 2718 c-1 -218 -6 -349 -12 -353 -5 -3 -10 -12 -10 -18 0 -7 5
-4 11 6 9 15 13 16 27 5 15 -11 15 -11 5 3 -10 12 -13 105 -16 360 l-2 344 -3
-347z"/>
<path d="M1354 2977 c-2 -7 -3 -78 -2 -157 l3 -145 5 158 c3 86 4 157 2 157
-1 0 -5 -6 -8 -13z"/>
<path d="M4860 2976 c0 -8 4 -17 9 -20 5 -4 7 3 4 14 -6 23 -13 26 -13 6z"/>
<path d="M5690 2976 c0 -8 4 -17 9 -20 5 -4 7 3 4 14 -6 23 -13 26 -13 6z"/>
<path d="M3820 2974 c0 -21 25 -35 38 -22 7 7 12 16 12 22 0 5 -6 1 -14 -9
-13 -18 -13 -18 -24 1 -6 10 -12 14 -12 8z"/>
<path d="M7350 2971 c0 -6 4 -13 10 -16 6 -3 7 1 4 9 -7 18 -14 21 -14 7z"/>
<path d="M7992 2768 l3 -213 2 204 3 205 53 -50 52 -49 -55 58 c-30 31 -56 57
-57 57 -2 0 -2 -96 -1 -212z"/>
<path d="M9010 2971 c0 -6 4 -13 10 -16 6 -3 7 1 4 9 -7 18 -14 21 -14 7z"/>
<path d="M830 2773 c-3 -111 -2 -199 3 -194 4 4 6 95 5 202 l-3 194 -5 -202z"/>
<path d="M4480 2964 c0 -5 64 -72 143 -149 l142 -140 -140 145 c-77 79 -141
146 -142 149 -2 2 -3 0 -3 -5z"/>
<path d="M8355 2918 l-50 -53 53 50 c48 46 57 55 49 55 -1 0 -25 -24 -52 -52z"/>
<path d="M6460 2893 l-65 -68 68 65 c37 35 67 66 67 67 0 8 -10 -2 -70 -64z"/>
<path d="M3844 2795 c0 -77 2 -107 3 -67 2 40 2 103 0 140 -2 37 -3 4 -3 -73z"/>
<path d="M390 2895 c13 -14 26 -25 28 -25 3 0 -5 11 -18 25 -13 14 -26 25 -28
25 -3 0 5 -11 18 -25z"/>
<path d="M522 2664 c-2 -208 -2 -211 21 -230 22 -19 22 -19 5 2 -15 17 -18 48
-21 230 l-2 209 -3 -211z"/>
<path d="M5045 2830 c-21 -22 -46 -40 -55 -41 -10 0 -11 -2 -2 -6 15 -6 16
-29 2 -36 -6 -3 -5 -4 2 -3 7 1 15 11 16 22 2 10 22 38 45 62 23 23 39 42 36
42 -3 0 -23 -18 -44 -40z"/>
<path d="M5589 2853 c-13 -16 -12 -17 4 -4 9 7 17 15 17 17 0 8 -8 3 -21 -13z"/>
<path d="M8204 2715 c0 -88 2 -123 3 -77 2 46 2 118 0 160 -1 42 -3 5 -3 -83z"/>
<path d="M8514 2775 c0 -55 1 -76 3 -47 2 29 2 74 0 100 -2 26 -3 2 -3 -53z"/>
<path d="M8768 2817 l52 -52 -53 -55 -52 -55 58 55 57 54 -52 53 c-29 29 -55
53 -57 53 -3 0 18 -24 47 -53z"/>
<path d="M9031 2818 c0 -31 2 -59 7 -61 4 -3 6 16 4 41 -5 73 -10 82 -11 20z"/>
<path d="M9470 2846 c0 -2 8 -10 18 -17 15 -13 16 -12 3 4 -13 16 -21 21 -21
13z"/>
<path d="M5534 2798 l-29 -33 33 29 c17 17 32 31 32 33 0 8 -8 1 -36 -29z"/>
<path d="M5820 2783 c5 -2 10 -11 10 -18 0 -7 -5 -16 -10 -18 -6 -3 -5 -4 2
-3 7 2 13 11 13 21 0 10 -6 19 -13 21 -7 1 -8 0 -2 -3z"/>
<path d="M7045 2780 c-3 -6 1 -7 9 -4 18 7 21 14 7 14 -6 0 -13 -4 -16 -10z"/>
<path d="M9130 2786 c0 -2 7 -7 16 -10 8 -3 12 -2 9 4 -6 10 -25 14 -25 6z"/>
<path d="M50 2715 c30 -30 57 -55 59 -55 3 0 -19 25 -49 55 -30 30 -57 55 -59
55 -3 0 19 -25 49 -55z"/>
<path d="M2103 2763 c15 -2 37 -2 50 0 12 2 0 4 -28 4 -27 0 -38 -2 -22 -4z"/>
<path d="M5171 2760 c-1 -8 -20 -35 -43 -60 l-43 -45 49 46 c28 27 46 52 43
60 -4 11 -6 11 -6 -1z"/>
<path d="M5738 2763 c12 -2 32 -2 45 0 12 2 2 4 -23 4 -25 0 -35 -2 -22 -4z"/>
<path d="M7118 2763 l42 -4 0 -102 0 -101 -37 -41 -38 -40 43 40 42 39 0 108
0 108 -47 -2 -48 -1 43 -4z"/>
<path d="M9361 2760 c-1 -9 43 -58 97 -110 l97 -95 -91 95 c-51 52 -94 102
-97 110 -5 13 -6 13 -6 0z"/>
<path d="M630 2750 c-9 -6 -10 -10 -3 -10 6 0 15 5 18 10 8 12 4 12 -15 0z"/>
<path d="M2290 2750 c-9 -6 -10 -10 -3 -10 6 0 15 5 18 10 8 12 4 12 -15 0z"/>
<path d="M4867 2749 c7 -7 15 -10 18 -7 3 3 -2 9 -12 12 -14 6 -15 5 -6 -5z"/>
<path d="M5503 2710 c0 -30 2 -43 4 -27 2 15 2 39 0 55 -2 15 -4 2 -4 -28z"/>
<path d="M6440 2750 c-9 -6 -10 -10 -3 -10 6 0 15 5 18 10 8 12 4 12 -15 0z"/>
<path d="M7047 2749 c7 -7 15 -10 18 -7 3 3 -2 9 -12 12 -14 6 -15 5 -6 -5z"/>
<path d="M8310 2750 c-9 -6 -10 -10 -3 -10 6 0 15 5 18 10 8 12 4 12 -15 0z"/>
<path d="M9227 2749 c7 -7 15 -10 18 -7 3 3 -2 9 -12 12 -14 6 -15 5 -6 -5z"/>
<path d="M9090 2705 c19 -19 36 -35 39 -35 3 0 -10 16 -29 35 -19 19 -36 35
-39 35 -3 0 10 -16 29 -35z"/>
<path d="M6334 2667 c-2 -7 -3 -78 -2 -157 l3 -145 5 158 c3 86 4 157 2 157
-1 0 -5 -6 -8 -13z"/>
<path d="M1851 2654 c0 -11 3 -14 6 -6 3 7 2 16 -1 19 -3 4 -6 -2 -5 -13z"/>
<path d="M4171 2654 c0 -11 3 -14 6 -6 3 7 2 16 -1 19 -3 4 -6 -2 -5 -13z"/>
<path d="M5170 2661 c0 -6 4 -13 10 -16 6 -3 7 1 4 9 -7 18 -14 21 -14 7z"/>
<path d="M9320 2663 c0 -7 5 -15 10 -18 6 -4 10 -134 10 -359 l0 -352 48 -44
47 -45 -42 45 -43 46 0 349 c-1 292 -3 353 -15 369 -8 11 -15 15 -15 9z"/>
<path d="M3324 2565 c0 -55 1 -76 3 -47 2 29 2 74 0 100 -2 26 -3 2 -3 -53z"/>
<path d="M4362 2258 c-1 -280 1 -409 9 -413 6 -4 8 -14 4 -24 -5 -12 -4 -13 6
-4 9 9 9 16 1 26 -8 10 -13 132 -15 418 l-2 404 -3 -407z"/>
<path d="M4672 2560 l-2 -105 -102 -105 -103 -105 108 105 108 106 -4 104 -3
105 -2 -105z"/>
<path d="M7835 2610 c27 -27 51 -50 54 -50 3 0 -17 23 -44 50 -27 28 -51 50
-54 50 -3 0 17 -22 44 -50z"/>
<path d="M3012 2203 c-1 -248 1 -454 6 -456 6 -5 6 340 -1 748 -1 88 -4 -43
-5 -292z"/>
<path d="M8960 2627 c0 -1 35 -36 78 -77 l77 -75 -75 78 c-69 71 -80 82 -80
74z"/>
<path d="M1327 2569 c6 -23 9 -24 16 -5 3 8 0 17 -7 19 -10 4 -12 -1 -9 -14z"/>
<path d="M3825 2569 c-4 -6 -5 -12 -2 -15 2 -3 7 2 10 11 7 17 1 20 -8 4z"/>
<path d="M5827 2559 c4 -13 8 -18 11 -10 2 7 -1 18 -6 23 -8 8 -9 4 -5 -13z"/>
<path d="M7678 2472 c2 -53 8 -102 14 -109 5 -7 6 -18 2 -25 -5 -10 -4 -11 7
0 10 9 10 15 1 24 -8 8 -12 46 -12 104 0 51 -3 95 -7 97 -5 3 -7 -38 -5 -91z"/>
<path d="M1663 2515 c0 -27 2 -38 4 -22 2 15 2 37 0 50 -2 12 -4 0 -4 -28z"/>
<path d="M2182 2405 l-2 -161 48 -44 47 -45 -42 45 -42 45 -4 160 -3 160 -2
-160z"/>
<path d="M5242 2507 l-53 -53 4 -150 3 -149 2 150 2 149 52 53 c29 29 50 53
47 53 -2 0 -28 -24 -57 -53z"/>
<path d="M3532 2500 c-2 -43 -6 -50 -107 -150 l-105 -105 0 -350 c0 -260 -3
-354 -12 -363 -9 -9 -9 -15 1 -24 11 -10 13 -10 7 0 -13 22 6 37 21 17 7 -11
13 -14 13 -8 0 7 -4 15 -10 18 -6 4 -10 134 -10 358 l0 352 106 106 105 106
-4 44 -4 44 -1 -45z"/>
<path d="M5750 2495 c-24 -25 -42 -45 -39 -45 3 0 25 20 49 45 24 25 42 45 39
45 -3 0 -25 -20 -49 -45z"/>
<path d="M6125 2450 c49 -49 92 -90 95 -90 2 0 -36 41 -85 90 -49 50 -92 90
-95 90 -2 0 36 -40 85 -90z"/>
<path d="M980 2459 l-45 -6 42 -1 c23 -1 45 -6 48 -12 3 -5 12 -10 18 -10 8 0
9 2 1 8 -6 4 -13 12 -15 17 -2 6 -23 8 -49 4z"/>
<path d="M3340 2458 c0 -9 -6 -19 -12 -21 -10 -4 -10 -6 0 -6 14 -1 28 26 18
36 -3 4 -6 -1 -6 -9z"/>
<path d="M4033 2456 c1 -11 9 -21 17 -23 10 -3 11 -2 4 4 -6 4 -14 15 -17 23
-5 11 -6 9 -4 -4z"/>
<path d="M1140 2452 c0 -4 19 -6 43 -4 70 5 76 10 15 11 -32 0 -58 -2 -58 -7z"/>
<path d="M2680 2451 c0 -10 19 -25 25 -20 1 2 -3 10 -11 17 -8 7 -14 8 -14 3z"/>
<path d="M3856 2445 c-3 -9 -9 -14 -13 -12 -5 3 -7 -61 -5 -142 l3 -148 52
-49 52 -49 -47 50 -48 51 0 140 c0 94 4 144 12 152 6 6 9 14 6 17 -3 3 -8 -1
-12 -10z"/>
<path d="M5502 2153 l3 -308 2 302 3 302 53 4 52 3 -57 2 -58 2 2 -307z"/>
<path d="M6001 2453 c-1 -6 4 -15 9 -18 6 -3 10 -47 10 -97 0 -81 -3 -95 -22
-117 l-23 -26 27 24 c25 22 27 29 30 122 2 71 0 99 -9 99 -6 0 -14 6 -16 13
-4 9 -6 9 -6 0z"/>
<path d="M6490 2403 l-55 -58 58 55 c53 50 62 60 54 60 -1 0 -27 -26 -57 -57z"/>
<path d="M7173 2445 c-14 -15 -24 -607 -10 -598 4 2 7 134 7 292 0 208 3 290
12 299 6 6 10 14 7 16 -2 2 -9 -2 -16 -9z"/>
<path d="M8180 2453 c0 -6 5 -15 10 -18 6 -4 11 -68 12 -153 l2 -147 6 150 c3
96 1 151 -5 154 -5 2 -13 9 -17 15 -6 8 -8 7 -8 -1z"/>
<path d="M8470 2453 c38 -4 54 -12 100 -56 l55 -52 -55 58 c-52 54 -57 57
-100 55 l-45 -1 45 -4z"/>
<path d="M2377 2439 c7 -7 15 -10 18 -7 3 3 -2 9 -12 12 -14 6 -15 5 -6 -5z"/>
<path d="M2810 2440 c-9 -6 -10 -10 -3 -10 6 0 15 5 18 10 8 12 4 12 -15 0z"/>
<path d="M5300 2440 c-9 -6 -10 -10 -3 -10 6 0 15 5 18 10 8 12 4 12 -15 0z"/>
<path d="M7047 2439 c7 -7 15 -10 18 -7 3 3 -2 9 -12 12 -14 6 -15 5 -6 -5z"/>
<path d="M9140 2440 c-9 -6 -10 -10 -3 -10 6 0 15 5 18 10 8 12 4 12 -15 0z"/>
<path d="M828 2187 l3 -253 57 -55 57 -54 -53 56 -53 55 3 252 c2 163 -1 252
-7 252 -6 0 -9 -89 -7 -253z"/>
<path d="M2493 2395 c0 -27 2 -38 4 -22 2 15 2 37 0 50 -2 12 -4 0 -4 -28z"/>
<path d="M9030 2407 c0 -18 -5 -38 -12 -45 -9 -9 -9 -15 -1 -23 8 -8 11 -6 10
7 -1 11 3 18 8 17 6 -1 9 15 7 38 -5 48 -12 51 -12 6z"/>
<path d="M8494 2359 c-3 -6 -1 -16 5 -22 6 -6 11 -29 11 -52 0 -37 6 -46 58
-95 l57 -55 -52 55 c-47 49 -53 61 -53 97 0 23 -5 45 -11 48 -6 4 -8 13 -5 21
6 17 0 19 -10 3z"/>
<path d="M8526 2357 c3 -10 9 -15 12 -12 3 3 0 11 -7 18 -10 9 -11 8 -5 -6z"/>
<path d="M6310 2351 c0 -6 4 -13 10 -16 6 -3 7 1 4 9 -7 18 -14 21 -14 7z"/>
<path d="M1352 2313 c-1 -23 -6 -45 -12 -48 -5 -3 -10 -11 -10 -16 0 -6 7 -3
16 5 10 11 14 29 11 58 l-4 43 -1 -42z"/>
<path d="M2574 2328 l-19 -23 23 19 c12 11 22 21 22 23 0 8 -8 2 -26 -19z"/>
<path d="M3534 2245 c0 -60 1 -84 3 -52 2 32 2 81 0 110 -2 29 -3 3 -3 -58z"/>
<path d="M5875 2308 l-40 -43 43 40 c39 36 47 45 39 45 -2 0 -21 -19 -42 -42z"/>
<path d="M9654 2255 c0 -55 1 -76 3 -47 2 29 2 74 0 100 -2 26 -3 2 -3 -53z"/>
<path d="M522 1875 l-2 -461 53 -49 52 -50 -47 50 -48 50 -3 460 -2 460 -3
-460z"/>
<path d="M4673 2240 c0 -47 2 -66 4 -42 2 23 2 61 0 85 -2 23 -4 4 -4 -43z"/>
<path d="M305 2270 c-3 -5 1 -10 9 -10 8 0 17 -8 19 -17 4 -15 5 -15 6 -2 1
21 -25 44 -34 29z"/>
<path d="M2507 2262 c-11 -12 -17 -36 -17 -68 0 -45 4 -54 38 -85 l37 -34 -32
35 c-28 30 -33 44 -33 85 0 31 6 55 17 67 9 10 14 18 11 18 -3 0 -12 -8 -21
-18z"/>
<path d="M1546 2261 c-4 -5 3 -7 14 -4 23 6 26 13 6 13 -8 0 -17 -4 -20 -9z"/>
<path d="M2280 2266 c0 -2 7 -7 16 -10 8 -3 12 -2 9 4 -6 10 -25 14 -25 6z"/>
<path d="M4555 2260 c-3 -6 1 -7 9 -4 18 7 21 14 7 14 -6 0 -13 -4 -16 -10z"/>
<path d="M6215 2260 c-3 -6 1 -7 9 -4 18 7 21 14 7 14 -6 0 -13 -4 -16 -10z"/>
<path d="M7470 2266 c0 -2 7 -7 16 -10 8 -3 12 -2 9 4 -6 10 -25 14 -25 6z"/>
<path d="M7665 2259 c-4 -6 -4 -13 -1 -16 3 -4 6 -1 6 5 0 7 7 12 15 12 8 0
15 -4 15 -10 0 -6 55 -10 145 -10 l145 0 0 -152 0 -152 -47 -51 -48 -50 53 50
52 49 0 158 0 158 -144 0 c-86 0 -147 4 -151 10 -8 13 -32 13 -40 -1z"/>
<path d="M260 2195 c30 -30 57 -55 59 -55 3 0 -19 25 -49 55 -30 30 -57 55
-59 55 -3 0 19 -25 49 -55z"/>
<path d="M1703 2243 c15 -2 37 -2 50 0 12 2 0 4 -28 4 -27 0 -38 -2 -22 -4z"/>
<path d="M6918 2243 c29 -2 74 -2 100 0 26 2 2 3 -53 3 -55 0 -76 -1 -47 -3z"/>
<path d="M8780 2205 c-24 -25 -42 -45 -39 -45 3 0 25 20 49 45 24 25 42 45 39
45 -3 0 -25 -20 -49 -45z"/>
<path d="M6217 2229 c7 -7 15 -10 18 -7 3 3 -2 9 -12 12 -14 6 -15 5 -6 -5z"/>
<path d="M4650 2141 c0 -6 4 -13 10 -16 6 -3 7 1 4 9 -7 18 -14 21 -14 7z"/>
<path d="M5206 2133 c-6 -14 -5 -15 5 -6 7 7 10 15 7 18 -3 3 -9 -2 -12 -12z"/>
<path d="M6346 2135 c-3 -8 -1 -15 4 -15 6 0 10 7 10 15 0 8 -2 15 -4 15 -2 0
-6 -7 -10 -15z"/>
<path d="M155 2090 c27 -27 51 -50 54 -50 3 0 -17 23 -44 50 -27 28 -51 50
-54 50 -3 0 17 -22 44 -50z"/>
<path d="M2182 2040 l-2 -104 -52 -56 -53 -55 58 55 58 56 -4 104 -3 105 -2
-105z"/>
<path d="M4825 2088 l-50 -53 53 50 c28 27 52 51 52 52 0 8 -9 -1 -55 -49z"/>
<path d="M9180 2086 l-44 -51 44 41 c25 23 52 44 59 46 13 4 13 5 0 9 -8 3
-32 -15 -59 -45z"/>
<path d="M6185 2080 c21 -22 41 -40 44 -40 3 0 -13 18 -34 40 -21 22 -41 40
-44 40 -3 0 13 -18 34 -40z"/>
<path d="M370 2086 c0 -2 8 -10 18 -17 15 -13 16 -12 3 4 -13 16 -21 21 -21
13z"/>
<path d="M2050 2065 c13 -14 26 -25 28 -25 3 0 -5 11 -18 25 -13 14 -26 25
-28 25 -3 0 5 -11 18 -25z"/>
<path d="M3856 2047 c3 -10 9 -15 12 -12 3 3 0 11 -7 18 -10 9 -11 8 -5 -6z"/>
<path d="M5170 2045 c0 -8 2 -15 4 -15 2 0 6 7 10 15 3 8 1 15 -4 15 -6 0 -10
-7 -10 -15z"/>
<path d="M5206 2047 c3 -10 9 -15 12 -12 3 3 0 11 -7 18 -10 9 -11 8 -5 -6z"/>
<path d="M6036 2047 c3 -10 9 -15 12 -12 3 3 0 11 -7 18 -10 9 -11 8 -5 -6z"/>
<path d="M8185 2049 c-4 -6 -5 -12 -2 -15 2 -3 7 2 10 11 7 17 1 20 -8 4z"/>
<path d="M8495 2049 c-4 -6 -5 -12 -2 -15 2 -3 7 2 10 11 7 17 1 20 -8 4z"/>
<path d="M8526 2047 c3 -10 9 -15 12 -12 3 3 0 11 -7 18 -10 9 -11 8 -5 -6z"/>
<path d="M2440 1985 c30 -30 57 -55 59 -55 3 0 -19 25 -49 55 -30 30 -57 55
-59 55 -3 0 19 -25 49 -55z"/>
<path d="M5242 1987 c-53 -53 -53 -54 -49 -108 l3 -54 2 55 c2 51 5 57 54 107
29 29 50 53 47 53 -2 0 -28 -24 -57 -53z"/>
<path d="M6334 1935 c0 -60 1 -84 3 -52 2 32 2 81 0 110 -2 29 -3 3 -3 -58z"/>
<path d="M7627 1990 l53 -55 3 -305 2 -305 3 305 2 306 -57 54 -58 55 52 -55z"/>
<path d="M8899 2013 l-24 -28 28 24 c15 14 27 26 27 28 0 8 -8 1 -31 -24z"/>
<path d="M4580 1843 l-185 -188 188 185 c174 172 192 190 184 190 -1 0 -85
-84 -187 -187z"/>
<path d="M6853 1950 c0 -47 2 -66 4 -42 2 23 2 61 0 85 -2 23 -4 4 -4 -43z"/>
<path d="M3842 1980 c-2 -43 1 -48 56 -100 l57 -55 -52 55 c-44 46 -52 62 -56
100 l-4 45 -1 -45z"/>
<path d="M8204 1925 c0 -55 1 -76 3 -47 2 29 2 74 0 100 -2 26 -3 2 -3 -53z"/>
<path d="M9034 1820 c0 -113 2 -159 3 -102 2 56 2 148 0 205 -1 56 -3 10 -3
-103z"/>
<path d="M930 1956 c0 -2 7 -7 16 -10 8 -3 12 -2 9 4 -6 10 -25 14 -25 6z"/>
<path d="M1450 1956 c0 -2 7 -7 16 -10 8 -3 12 -2 9 4 -6 10 -25 14 -25 6z"/>
<path d="M2065 1950 c-3 -6 1 -7 9 -4 18 7 21 14 7 14 -6 0 -13 -4 -16 -10z"/>
<path d="M3110 1956 c0 -2 7 -7 16 -10 8 -3 12 -2 9 4 -6 10 -25 14 -25 6z"/>
<path d="M3940 1956 c0 -2 7 -7 16 -10 8 -3 12 -2 9 4 -6 10 -25 14 -25 6z"/>
<path d="M4770 1956 c0 -2 7 -7 16 -10 8 -3 12 -2 9 4 -6 10 -25 14 -25 6z"/>
<path d="M7256 1952 c-2 -4 4 -8 14 -8 10 0 16 4 14 8 -3 4 -9 8 -14 8 -5 0
-11 -4 -14 -8z"/>
<path d="M9130 1956 c0 -2 7 -7 16 -10 8 -3 12 -2 9 4 -6 10 -25 14 -25 6z"/>
<path d="M7351 1934 c0 -11 3 -14 6 -6 3 7 2 16 -1 19 -3 4 -6 -2 -5 -13z"/>
<path d="M1680 1932 c0 -4 17 -6 38 -4 58 5 62 10 10 11 -27 1 -48 -3 -48 -7z"/>
<path d="M2067 1919 c7 -7 15 -10 18 -7 3 3 -2 9 -12 12 -14 6 -15 5 -6 -5z"/>
<path d="M3120 1920 c-9 -6 -10 -10 -3 -10 6 0 15 5 18 10 8 12 4 12 -15 0z"/>
<path d="M3950 1920 c-13 -8 -12 -10 3 -10 9 0 17 5 17 10 0 12 -1 12 -20 0z"/>
<path d="M4780 1920 c-9 -6 -10 -10 -3 -10 6 0 15 5 18 10 8 12 4 12 -15 0z"/>
<path d="M5300 1920 c-9 -6 -10 -10 -3 -10 6 0 15 5 18 10 8 12 4 12 -15 0z"/>
<path d="M7258 1918 c5 -5 16 -8 23 -6 8 3 3 7 -10 11 -17 4 -21 3 -13 -5z"/>
<path d="M6025 1565 c0 -198 1 -280 2 -183 2 97 2 259 0 360 -1 101 -2 21 -2
-177z"/>
<path d="M4340 1831 c0 -6 4 -13 10 -16 6 -3 7 1 4 9 -7 18 -14 21 -14 7z"/>
<path d="M4650 1833 c0 -6 5 -15 10 -18 6 -3 11 -45 12 -93 l2 -87 3 85 c2 47
8 89 13 94 6 6 10 14 10 20 0 5 -6 1 -14 -9 -13 -18 -13 -18 -24 1 -6 10 -12
14 -12 7z"/>
<path d="M5480 1831 c0 -6 4 -13 10 -16 6 -3 7 1 4 9 -7 18 -14 21 -14 7z"/>
<path d="M5516 1823 c-6 -14 -5 -15 5 -6 7 7 10 15 7 18 -3 3 -9 -2 -12 -12z"/>
<path d="M6830 1831 c0 -6 4 -13 10 -16 6 -3 7 1 4 9 -7 18 -14 21 -14 7z"/>
<path d="M8523 1821 c-12 -20 -20 -187 -9 -198 3 -3 6 36 6 88 0 60 4 99 12
107 6 6 10 14 7 16 -3 3 -10 -3 -16 -13z"/>
<path d="M9440 1836 c0 -2 8 -10 18 -17 15 -13 16 -12 3 4 -13 16 -21 21 -21
13z"/>
<path d="M2579 1813 c-13 -16 -12 -17 4 -4 16 13 21 21 13 21 -2 0 -10 -8 -17
-17z"/>
<path d="M3532 1795 c-1 -23 -5 -45 -9 -51 -5 -5 -2 -4 5 2 8 7 12 26 9 50
l-4 39 -1 -40z"/>
<path d="M7991 1814 c0 -11 3 -14 6 -6 3 7 2 16 -1 19 -3 4 -6 -2 -5 -13z"/>
<path d="M9342 1690 c-1 -98 -6 -150 -14 -158 -9 -9 -9 -15 -1 -23 8 -8 11 -7
10 2 -1 8 3 14 8 14 6 0 9 -6 8 -14 -1 -9 2 -10 10 -2 7 7 7 14 -1 24 -7 8
-13 70 -15 158 l-3 144 -2 -145z"/>
<path d="M9480 1796 c0 -2 8 -10 18 -17 15 -13 16 -12 3 4 -13 16 -21 21 -21
13z"/>
<path d="M2521 1756 c-30 -30 -32 -37 -28 -87 l3 -54 2 55 c2 46 7 59 34 87
18 18 30 33 27 33 -3 0 -20 -15 -38 -34z"/>
<path d="M9526 1747 c3 -10 9 -15 12 -12 3 3 0 11 -7 18 -10 9 -11 8 -5 -6z"/>
<path d="M5512 1738 c-7 -7 -11 -32 -10 -57 l1 -46 4 45 c3 24 9 50 15 57 13
16 6 17 -10 1z"/>
<path d="M6835 1739 c-4 -6 -5 -12 -2 -15 2 -3 7 2 10 11 7 17 1 20 -8 4z"/>
<path d="M6866 1737 c3 -10 9 -15 12 -12 3 3 0 11 -7 18 -10 9 -11 8 -5 -6z"/>
<path d="M2184 1625 c0 -60 1 -84 3 -52 2 32 2 81 0 110 -2 29 -3 3 -3 -58z"/>
<path d="M2740 1688 c41 -45 50 -53 50 -45 0 2 -21 23 -47 47 l-48 45 45 -47z"/>
<path d="M4100 1675 c30 -30 57 -55 59 -55 3 0 -19 25 -49 55 -30 30 -57 55
-59 55 -3 0 19 -25 49 -55z"/>
<path d="M4930 1673 l-55 -58 58 55 c53 50 62 60 54 60 -1 0 -27 -26 -57 -57z"/>
<path d="M6277 1680 c44 -46 52 -62 56 -100 l4 -45 1 45 c2 43 -1 48 -55 100
l-58 55 52 -55z"/>
<path d="M7163 1685 c0 -27 2 -38 4 -22 2 15 2 37 0 50 -2 12 -4 0 -4 -28z"/>
<path d="M785 1670 c28 -31 52 -54 55 -53 2 2 -20 27 -50 56 l-54 52 49 -55z"/>
<path d="M6850 1469 c-3 -160 -2 -246 5 -246 6 0 9 59 7 161 -5 309 -8 329
-12 85z"/>
<path d="M5239 1673 l-24 -28 28 24 c25 23 32 31 24 31 -2 0 -14 -12 -28 -27z"/>
<path d="M2817 1621 c-4 -17 -3 -21 5 -13 5 5 8 16 6 23 -3 8 -7 3 -11 -10z"/>
<path d="M4364 1627 c-2 -7 -3 -105 -2 -217 l3 -205 5 218 c3 119 4 217 2 217
-1 0 -5 -6 -8 -13z"/>
<path d="M1664 1470 c0 -91 2 -128 3 -82 2 45 2 119 0 165 -1 45 -3 8 -3 -83z"/>
<path d="M2990 1623 c0 -7 5 -15 10 -18 6 -4 11 -68 12 -153 l2 -147 3 143 c3
116 1 147 -12 165 -8 12 -15 16 -15 10z"/>
<path d="M7176 1613 c-6 -14 -5 -15 5 -6 7 7 10 15 7 18 -3 3 -9 -2 -12 -12z"/>
<path d="M2290 1610 c-13 -8 -12 -10 3 -10 9 0 17 5 17 10 0 12 -1 12 -20 0z"/>
<path d="M3685 1570 c27 -27 51 -50 54 -50 3 0 -17 23 -44 50 -27 28 -51 50
-54 50 -3 0 17 -22 44 -50z"/>
<path d="M5387 1609 c7 -7 15 -10 18 -7 3 3 -2 9 -12 12 -14 6 -15 5 -6 -5z"/>
<path d="M6130 1610 c-13 -8 -12 -10 3 -10 9 0 17 5 17 10 0 12 -1 12 -20 0z"/>
<path d="M8000 1617 c0 -2 15 -16 33 -33 l32 -29 -29 33 c-28 30 -36 37 -36
29z"/>
<path d="M8310 1610 c-9 -6 -10 -10 -3 -10 6 0 15 5 18 10 8 12 4 12 -15 0z"/>
<path d="M5650 1565 c-24 -25 -42 -45 -39 -45 3 0 25 20 49 45 24 25 42 45 39
45 -3 0 -25 -20 -49 -45z"/>
<path d="M6700 1568 l44 -48 -44 -47 -45 -48 50 48 50 47 -50 48 -50 47 45
-47z"/>
<path d="M833 1560 c0 -25 2 -35 4 -22 2 12 2 32 0 45 -2 12 -4 2 -4 -23z"/>
<path d="M6190 1555 c19 -19 36 -35 39 -35 3 0 -10 16 -29 35 -19 19 -36 35
-39 35 -3 0 10 -16 29 -35z"/>
<path d="M5175 1530 c-4 -6 -2 -17 4 -24 6 -7 12 -75 14 -157 l3 -144 2 146
c1 97 6 149 14 157 9 9 9 15 1 23 -8 8 -11 7 -10 -2 1 -8 -2 -14 -8 -14 -5 0
-9 6 -9 13 2 15 -3 16 -11 2z"/>
<path d="M5485 1529 c-4 -6 -5 -12 -2 -15 2 -3 7 2 10 11 7 17 1 20 -8 4z"/>
<path d="M8214 1520 c0 -13 4 -16 10 -10 7 7 7 13 0 20 -6 6 -10 3 -10 -10z"/>
<path d="M2125 1470 c27 -27 51 -50 54 -50 3 0 -17 23 -44 50 -27 28 -51 50
-54 50 -3 0 17 -22 44 -50z"/>
<path d="M8512 1470 c-2 -51 -5 -58 -54 -110 l-53 -55 58 56 58 55 -4 55 -3
54 -2 -55z"/>
<path d="M2445 1463 l49 -53 93 0 c50 0 95 -4 98 -10 3 -5 12 -10 18 -9 9 0 9
2 0 6 -19 7 -16 31 5 36 15 4 15 5 0 6 -9 0 -20 -3 -23 -9 -3 -5 -47 -10 -98
-10 l-91 0 -51 48 -50 47 50 -52z"/>
<path d="M3230 1506 c0 -2 8 -10 18 -17 15 -13 16 -12 3 4 -13 16 -21 21 -21
13z"/>
<path d="M100 1436 c0 -2 7 -7 16 -10 8 -3 12 -2 9 4 -6 10 -25 14 -25 6z"/>
<path d="M928 1433 c7 -3 16 -2 19 1 4 3 -2 6 -13 5 -11 0 -14 -3 -6 -6z"/>
<path d="M1450 1436 c0 -2 7 -7 16 -10 8 -3 12 -2 9 4 -6 10 -25 14 -25 6z"/>
<path d="M4035 1430 c-3 -6 1 -7 9 -4 18 7 21 14 7 14 -6 0 -13 -4 -16 -10z"/>
<path d="M4865 1430 c-3 -6 1 -7 9 -4 18 7 21 14 7 14 -6 0 -13 -4 -16 -10z"/>
<path d="M5810 1436 c0 -2 7 -7 16 -10 8 -3 12 -2 9 4 -6 10 -25 14 -25 6z"/>
<path d="M7565 1430 c-3 -6 1 -7 9 -4 18 7 21 14 7 14 -6 0 -13 -4 -16 -10z"/>
<path d="M9015 1429 c-11 -16 -1 -19 13 -3 7 8 8 14 3 14 -5 0 -13 -5 -16 -11z"/>
<path d="M255 1370 c27 -27 51 -50 54 -50 3 0 -17 23 -44 50 -27 28 -51 50
-54 50 -3 0 17 -22 44 -50z"/>
<path d="M1298 1413 c29 -2 74 -2 100 0 26 2 2 3 -53 3 -55 0 -76 -1 -47 -3z"/>
<path d="M4638 1413 c29 -2 74 -2 100 0 26 2 2 3 -53 3 -55 0 -76 -1 -47 -3z"/>
<path d="M5555 1413 l160 -4 55 -52 55 -52 -55 58 -54 57 -161 -2 -160 -2 160
-3z"/>
<path d="M8045 1413 l160 -4 40 -37 40 -37 -40 43 -39 42 -161 -2 -160 -2 160
-3z"/>
<path d="M2125 1358 l-50 -53 53 50 c48 46 57 55 49 55 -1 0 -25 -24 -52 -52z"/>
<path d="M7567 1399 c7 -7 15 -10 18 -7 3 3 -2 9 -12 12 -14 6 -15 5 -6 -5z"/>
<path d="M3844 1095 c0 -171 2 -242 3 -158 2 83 2 223 0 310 -1 87 -3 19 -3
-152z"/>
<path d="M6330 1298 c-3 -59 -1 -104 3 -99 4 4 6 52 5 107 l-3 99 -5 -107z"/>
<path d="M9034 1200 c0 -113 2 -159 3 -102 2 56 2 148 0 205 -1 56 -3 10 -3
-103z"/>
<path d="M2681 1320 c-1 -9 3 -20 8 -25 5 -6 11 -21 13 -35 3 -23 4 -22 9 7 3
18 2 30 -3 27 -4 -3 -12 5 -17 18 -6 14 -10 17 -10 8z"/>
<path d="M834 1110 c0 -118 2 -167 3 -107 2 59 2 155 0 215 -1 59 -3 10 -3
-108z"/>
<path d="M2506 1303 c-6 -14 -5 -15 5 -6 7 7 10 15 7 18 -3 3 -9 -2 -12 -12z"/>
<path d="M7164 1220 c0 -58 1 -81 3 -52 2 28 2 76 0 105 -2 28 -3 5 -3 -53z"/>
<path d="M7350 1311 c0 -6 4 -13 10 -16 6 -3 7 1 4 9 -7 18 -14 21 -14 7z"/>
<path d="M7660 1311 c0 -6 4 -13 10 -16 6 -3 7 1 4 9 -7 18 -14 21 -14 7z"/>
<path d="M3155 1270 c21 -22 41 -40 44 -40 3 0 -13 18 -34 40 -21 22 -41 40
-44 40 -3 0 13 -18 34 -40z"/>
<path d="M5504 1155 c0 -88 2 -123 3 -77 2 46 2 118 0 160 -1 42 -3 5 -3 -83z"/>
<path d="M5655 1260 c27 -27 51 -50 54 -50 3 0 -17 23 -44 50 -27 28 -51 50
-54 50 -3 0 17 -22 44 -50z"/>
<path d="M6178 1265 c-25 -25 -43 -46 -40 -48 4 -2 27 18 51 45 55 60 50 61
-11 3z"/>
<path d="M7520 1255 l-44 -50 44 42 c25 22 54 43 65 45 l20 4 -20 5 c-15 3
-32 -9 -65 -46z"/>
<path d="M7845 1268 l-40 -43 43 40 c23 21 42 40 42 42 0 8 -9 0 -45 -39z"/>
<path d="M9342 1210 l-2 -104 -52 -56 -53 -55 58 55 58 56 -4 104 -3 105 -2
-105z"/>
<path d="M680 1258 c41 -45 50 -53 50 -45 0 2 -21 23 -47 47 l-48 45 45 -47z"/>
<path d="M429 1223 c-13 -16 -12 -17 4 -4 9 7 17 15 17 17 0 8 -8 3 -21 -13z"/>
<path d="M2995 1219 c-4 -6 -5 -12 -2 -15 2 -3 7 2 10 11 7 17 1 20 -8 4z"/>
<path d="M3028 1203 c5 -21 7 -23 10 -9 2 10 0 22 -6 28 -6 6 -7 0 -4 -19z"/>
<path d="M4655 1219 c-4 -6 -5 -12 -2 -15 2 -3 7 2 10 11 7 17 1 20 -8 4z"/>
<path d="M4686 1217 c3 -10 9 -15 12 -12 3 3 0 11 -7 18 -10 9 -11 8 -5 -6z"/>
<path d="M7043 1215 c-3 -9 -3 -18 -1 -21 3 -3 8 4 11 16 6 23 -1 27 -10 5z"/>
<path d="M7975 1220 c-4 -6 -2 -17 4 -23 5 -7 12 -56 14 -108 l3 -94 2 97 c1
60 -2 99 -9 103 -6 4 -8 13 -5 21 6 16 0 19 -9 4z"/>
<path d="M8006 1217 c3 -10 9 -15 12 -12 3 3 0 11 -7 18 -10 9 -11 8 -5 -6z"/>
<path d="M3320 907 c-4 -242 -2 -307 8 -307 6 0 12 -5 12 -12 0 -6 3 -8 6 -5
4 4 2 13 -4 20 -8 9 -13 109 -14 313 l-3 299 -5 -308z"/>
<path d="M5269 1183 l-24 -28 28 24 c15 14 27 26 27 28 0 8 -8 1 -31 -24z"/>
<path d="M6902 1157 l-52 -53 0 -154 0 -154 -47 -51 -48 -50 53 50 52 49 0
155 0 155 52 53 c29 29 50 53 47 53 -2 0 -28 -24 -57 -53z"/>
<path d="M7678 905 c-2 -168 0 -305 5 -305 4 0 7 137 7 305 0 168 -2 305 -5
305 -2 0 -6 -137 -7 -305z"/>
<path d="M4097 1154 c-27 -26 -46 -48 -44 -50 2 -2 25 19 52 46 62 63 56 65
-8 4z"/>
<path d="M8150 1158 c24 -27 45 -48 47 -48 8 0 0 9 -44 50 l-48 45 45 -47z"/>
<path d="M3532 1058 c-1 -78 -6 -139 -12 -143 -5 -3 -10 -12 -10 -18 0 -8 2
-9 8 -1 4 6 12 13 17 15 6 3 8 55 5 144 l-6 140 -2 -137z"/>
<path d="M2209 1133 c-13 -16 -12 -17 4 -4 16 13 21 21 13 21 -2 0 -10 -8 -17
-17z"/>
<path d="M4343 1114 c-3 -8 -1 -20 6 -27 6 -6 11 -48 11 -102 l0 -91 53 -49
52 -50 -48 51 -48 51 3 97 c2 72 0 96 -9 96 -7 0 -13 6 -13 14 0 8 6 17 13 19
9 4 9 6 -1 6 -7 1 -15 -6 -19 -15z"/>
<path d="M6134 1118 c19 -11 19 -11 1 -24 -10 -8 -14 -14 -9 -14 6 0 14 4 20
9 5 6 29 11 54 14 l45 4 -47 1 c-26 1 -50 7 -53 12 -3 6 -12 10 -18 10 -7 0
-3 -6 7 -12z"/>
<path d="M6523 1114 c-8 -20 10 -37 33 -31 16 4 15 5 -3 6 -24 1 -32 26 -10
34 9 4 9 6 -1 6 -7 1 -15 -6 -19 -15z"/>
<path d="M7565 1120 c-3 -6 1 -7 9 -4 18 7 21 14 7 14 -6 0 -13 -4 -16 -10z"/>
<path d="M9225 1120 c-3 -6 1 -7 9 -4 18 7 21 14 7 14 -6 0 -13 -4 -16 -10z"/>
<path d="M7180 1108 c0 -9 -6 -19 -12 -21 -10 -4 -10 -6 0 -6 14 -1 28 26 18
36 -3 4 -6 -1 -6 -9z"/>
<path d="M524 795 c0 -176 2 -247 3 -157 2 90 2 234 0 320 -1 86 -3 13 -3
-163z"/>
<path d="M1193 1103 l157 -4 0 -38 c0 -25 6 -43 18 -52 14 -11 15 -11 5 1 -7
8 -13 33 -13 57 l0 43 -162 -2 -163 -2 158 -3z"/>
<path d="M2230 1055 c30 -30 57 -55 59 -55 3 0 -19 25 -49 55 -30 30 -57 55
-59 55 -3 0 19 -25 49 -55z"/>
<path d="M2990 1103 c0 -6 5 -15 10 -18 6 -4 11 -68 12 -153 l2 -147 6 150 c3
96 1 151 -5 154 -5 2 -13 9 -17 15 -6 8 -8 7 -8 -1z"/>
<path d="M5883 1103 c26 -2 67 -2 90 0 23 2 2 3 -48 3 -49 0 -68 -1 -42 -3z"/>
<path d="M8530 1102 c0 -7 -10 -13 -22 -13 -19 -1 -20 -2 -4 -6 20 -5 44 12
33 24 -4 3 -7 1 -7 -5z"/>
<path d="M1980 1090 c-9 -6 -10 -10 -3 -10 6 0 15 5 18 10 8 12 4 12 -15 0z"/>
<path d="M2605 1008 l-90 -93 93 90 c85 83 97 95 89 95 -1 0 -43 -42 -92 -92z"/>
<path d="M3207 1089 c7 -7 15 -10 18 -7 3 3 -2 9 -12 12 -14 6 -15 5 -6 -5z"/>
<path d="M4867 1089 c7 -7 15 -10 18 -7 3 3 -2 9 -12 12 -14 6 -15 5 -6 -5z"/>
<path d="M8203 1050 c0 -30 2 -43 4 -27 2 15 2 39 0 55 -2 15 -4 2 -4 -28z"/>
<path d="M9227 1089 c7 -7 15 -10 18 -7 3 3 -2 9 -12 12 -14 6 -15 5 -6 -5z"/>
<path d="M5125 1038 l-40 -43 43 40 c39 36 47 45 39 45 -2 0 -21 -19 -42 -42z"/>
<path d="M8439 1033 l-34 -38 38 34 c34 33 42 41 34 41 -2 0 -19 -17 -38 -37z"/>
<path d="M4059 1013 c-13 -16 -12 -17 4 -4 9 7 17 15 17 17 0 8 -8 3 -21 -13z"/>
<path d="M1330 1001 c0 -6 4 -13 10 -16 6 -3 7 1 4 9 -7 18 -14 21 -14 7z"/>
<path d="M5170 995 c0 -8 4 -15 10 -15 5 0 7 7 4 15 -4 8 -8 15 -10 15 -2 0
-4 -7 -4 -15z"/>
<path d="M8521 987 c-8 -15 -11 -67 -9 -162 l4 -140 2 146 c1 95 6 149 14 157
6 6 9 14 7 17 -3 3 -11 -5 -18 -18z"/>
<path d="M985 950 c27 -27 51 -50 54 -50 3 0 -17 23 -44 50 -27 28 -51 50 -54
50 -3 0 17 -22 44 -50z"/>
<path d="M1712 947 l-53 -53 4 -105 3 -104 2 105 2 104 52 53 c29 29 50 53 47
53 -2 0 -28 -24 -57 -53z"/>
<path d="M4154 895 c0 -60 1 -84 3 -52 2 32 2 81 0 110 -2 29 -3 3 -3 -58z"/>
<path d="M4820 954 c25 -27 47 -49 50 -47 2 2 -18 25 -45 51 l-49 47 44 -51z"/>
<path d="M9344 895 c0 -60 1 -84 3 -52 2 32 2 81 0 110 -2 29 -3 3 -3 -58z"/>
<path d="M679 953 l-24 -28 28 24 c25 23 32 31 24 31 -2 0 -14 -12 -28 -27z"/>
<path d="M4955 868 l-80 -83 83 80 c76 74 87 85 79 85 -1 0 -38 -37 -82 -82z"/>
<path d="M2506 907 c3 -10 9 -15 12 -12 3 3 0 11 -7 18 -10 9 -11 8 -5 -6z"/>
<path d="M8088 913 c7 -3 16 -2 19 1 4 3 -2 6 -13 5 -11 0 -14 -3 -6 -6z"/>
<path d="M2437 850 l52 -55 4 -140 3 -140 2 140 2 141 -57 54 -58 55 52 -55z"/>
<path d="M2704 690 c0 -118 2 -167 3 -108 2 60 2 156 0 216 -1 59 -3 10 -3
-108z"/>
<path d="M1042 865 c0 -16 2 -22 5 -12 2 9 2 23 0 30 -3 6 -5 -1 -5 -18z"/>
<path d="M6094 868 l-19 -23 23 19 c12 11 22 21 22 23 0 8 -8 2 -26 -19z"/>
<path d="M8202 748 c-1 -78 -6 -139 -12 -143 -5 -3 -10 -11 -10 -16 0 -6 7 -4
15 5 13 12 15 40 12 153 l-3 138 -2 -137z"/>
<path d="M8760 835 c-24 -25 -42 -45 -39 -45 3 0 25 20 49 45 24 25 42 45 39
45 -3 0 -25 -20 -49 -45z"/>
<path d="M311 824 c0 -11 3 -14 6 -6 3 7 2 16 -1 19 -3 4 -6 -2 -5 -13z"/>
<path d="M2158 819 c22 -26 23 -30 20 -226 -2 -128 1 -200 7 -200 6 0 9 72 7
202 l-3 202 -27 24 -27 24 23 -26z"/>
<path d="M330 797 c0 -8 -8 -18 -17 -20 -17 -4 -17 -5 0 -6 18 -1 35 25 23 36
-3 4 -6 -1 -6 -10z"/>
<path d="M6024 796 c-3 -7 -4 -35 -2 -62 l3 -49 5 63 c5 63 4 73 -6 48z"/>
<path d="M9037 803 c-4 -3 -7 -26 -7 -49 0 -24 -4 -46 -10 -49 -5 -3 -10 -11
-10 -18 0 -6 6 -2 14 8 13 18 13 18 24 -1 6 -10 12 -14 12 -8 0 5 -5 15 -11
21 -6 6 -10 32 -8 57 3 25 4 46 3 46 0 0 -4 -3 -7 -7z"/>
<path d="M1330 791 c0 -10 19 -25 25 -20 1 2 -3 10 -11 17 -8 7 -14 8 -14 3z"/>
<path d="M155 740 c-48 -49 -49 -50 -30 -68 18 -16 18 -16 5 1 -12 16 -8 23
35 67 27 28 47 50 44 50 -3 0 -27 -23 -54 -50z"/>
<path d="M3475 738 l-50 -53 53 50 c28 27 52 51 52 52 0 8 -9 -1 -55 -49z"/>
<path d="M3945 688 l-100 -103 103 100 c56 55 102 101 102 102 0 8 -12 -4
-105 -99z"/>
<path d="M7162 688 l-2 -108 58 2 57 2 -52 3 -52 4 -4 102 -3 102 -2 -107z"/>
<path d="M2964 748 l-29 -33 33 29 c30 28 37 36 29 36 -2 0 -16 -15 -33 -32z"/>
<path d="M4180 767 c0 -1 35 -36 78 -77 l77 -75 -75 78 c-69 71 -80 82 -80 74z"/>
<path d="M9400 735 c13 -14 26 -25 28 -25 3 0 -5 11 -18 25 -13 14 -26 25 -28
25 -3 0 5 -11 18 -25z"/>
<path d="M6415 710 c10 -11 20 -20 23 -20 3 0 -3 9 -13 20 -10 11 -20 20 -23
20 -3 0 3 -9 13 -20z"/>
<path d="M4345 699 c-4 -6 -5 -12 -2 -15 2 -3 7 2 10 11 7 17 1 20 -8 4z"/>
<path d="M7975 699 c-4 -6 -5 -12 -2 -15 2 -3 7 2 10 11 7 17 1 20 -8 4z"/>
<path d="M8011 684 c0 -11 3 -14 6 -6 3 7 2 16 -1 19 -3 4 -6 -2 -5 -13z"/>
<path d="M1354 585 c0 -60 1 -84 3 -52 2 32 2 81 0 110 -2 29 -3 3 -3 -58z"/>
<path d="M1660 583 l-105 -108 108 105 c99 97 112 110 104 110 -1 0 -50 -48
-107 -107z"/>
<path d="M3532 548 c-1 -85 -6 -149 -12 -153 -5 -3 -10 -11 -10 -18 0 -6 7 -2
15 10 13 18 15 49 12 165 l-3 143 -2 -147z"/>
<path d="M6170 648 c24 -27 45 -48 47 -48 8 0 0 9 -44 50 l-48 45 45 -47z"/>
<path d="M6934 668 l-19 -23 23 19 c12 11 22 21 22 23 0 8 -8 2 -26 -19z"/>
<path d="M8510 588 c57 -60 106 -108 107 -108 8 0 -5 13 -104 110 l-108 105
105 -107z"/>
<path d="M4672 635 c-2 -49 -1 -52 56 -105 l57 -55 -52 55 c-46 49 -52 61 -56
105 l-3 50 -2 -50z"/>
<path d="M6293 625 c32 -36 37 -47 37 -91 0 -47 3 -53 48 -94 l47 -45 -42 45
c-39 41 -43 51 -43 96 0 46 -3 53 -42 89 l-43 40 38 -40z"/>
<path d="M6726 606 c2 -6 13 -12 24 -12 23 0 17 12 -9 19 -12 3 -18 0 -15 -7z"/>
<path d="M9534 603 c18 -21 27 -23 115 -21 l96 2 -95 3 c-71 3 -99 8 -115 21
-20 17 -20 17 -1 -5z"/>
<path d="M1450 606 c0 -2 7 -6 15 -10 8 -3 15 -1 15 4 0 6 -7 10 -15 10 -8 0
-15 -2 -15 -4z"/>
<path d="M2896 601 c-4 -5 3 -7 14 -4 23 6 26 13 6 13 -8 0 -17 -4 -20 -9z"/>
<path d="M4035 600 c-3 -6 1 -7 9 -4 18 7 21 14 7 14 -6 0 -13 -4 -16 -10z"/>
<path d="M4341 594 c0 -11 3 -14 6 -6 3 7 2 16 -1 19 -3 4 -6 -2 -5 -13z"/>
<path d="M4460 606 c0 -2 7 -7 16 -10 8 -3 12 -2 9 4 -6 10 -25 14 -25 6z"/>
<path d="M5202 598 c-9 -9 -12 -69 -12 -209 0 -121 -4 -200 -10 -204 -5 -3
-10 -12 -10 -18 0 -7 6 -3 12 7 11 19 11 19 24 1 8 -10 14 -14 14 -8 0 7 -4
15 -10 18 -15 9 -13 398 2 413 7 7 10 12 7 12 -3 0 -10 -5 -17 -12z"/>
<path d="M5610 590 l-215 -6 212 -2 c133 -1 214 2 218 8 3 6 5 9 3 8 -2 -1
-100 -5 -218 -8z"/>
<path d="M3053 583 c15 -2 37 -2 50 0 12 2 0 4 -28 4 -27 0 -38 -2 -22 -4z"/>
<path d="M4470 570 c-9 -6 -10 -10 -3 -10 6 0 15 5 18 10 8 12 4 12 -15 0z"/>
<path d="M6740 566 c7 -7 13 -7 20 0 6 6 3 10 -10 10 -13 0 -16 -4 -10 -10z"/>
<path d="M4110 528 c41 -45 50 -53 50 -45 0 2 -21 23 -47 47 l-48 45 45 -47z"/>
<path d="M9344 370 c0 -113 2 -159 3 -102 2 56 2 148 0 205 -1 56 -3 10 -3
-103z"/>
<path d="M2506 473 c-6 -14 -5 -15 5 -6 7 7 10 15 7 18 -3 3 -9 -2 -12 -12z"/>
<path d="M4860 485 c0 -6 4 -15 9 -20 6 -6 11 -32 13 -60 l3 -50 5 57 c3 31 2
54 -2 52 -4 -2 -11 4 -17 13 -6 10 -11 13 -11 8z"/>
<path d="M6000 483 c0 -6 5 -15 10 -18 6 -3 10 -51 10 -108 l0 -101 -52 -56
-53 -55 57 54 57 54 3 108 c2 59 0 105 -4 103 -4 -2 -11 4 -17 13 -6 10 -11
13 -11 6z"/>
<path d="M831 464 c0 -11 3 -14 6 -6 3 7 2 16 -1 19 -3 4 -6 -2 -5 -13z"/>
<path d="M4515 428 l-50 -53 53 50 c28 27 52 51 52 52 0 8 -9 -1 -55 -49z"/>
<path d="M5513 473 c-9 -3 -13 -35 -13 -111 l0 -107 -127 -130 -128 -130 133
130 132 130 0 100 c0 65 4 105 12 113 13 13 11 14 -9 5z"/>
<path d="M6852 445 c-1 -22 5 -49 13 -59 8 -11 15 -15 15 -10 0 6 -4 14 -9 20
-5 5 -11 27 -14 49 l-4 40 -1 -40z"/>
<path d="M8310 476 c0 -2 8 -10 18 -17 15 -13 16 -12 3 4 -13 16 -21 21 -21
13z"/>
<path d="M833 365 c0 -44 2 -61 4 -37 2 23 2 59 0 80 -2 20 -4 1 -4 -43z"/>
<path d="M8350 436 c0 -2 8 -10 18 -17 15 -13 16 -12 3 4 -13 16 -21 21 -21
13z"/>
<path d="M9030 421 c0 -11 -4 -23 -10 -26 -5 -3 -10 -12 -10 -18 0 -7 5 -4 11
6 6 9 14 15 18 13 5 -3 6 6 3 19 -5 30 -12 33 -12 6z"/>
<path d="M434 398 l-19 -23 23 19 c12 11 22 21 22 23 0 8 -8 2 -26 -19z"/>
<path d="M304 398 c-4 -7 -4 -10 1 -6 4 4 15 2 24 -5 14 -11 14 -10 2 6 -16
20 -18 21 -27 5z"/>
<path d="M7176 387 c3 -10 9 -15 12 -12 3 3 0 11 -7 18 -10 9 -11 8 -5 -6z"/>
<path d="M8390 396 c0 -2 8 -10 18 -17 15 -13 16 -12 3 4 -13 16 -21 21 -21
13z"/>
<path d="M260 325 c30 -30 57 -55 59 -55 3 0 -19 25 -49 55 -30 30 -57 55 -59
55 -3 0 19 -25 49 -55z"/>
<path d="M4655 370 c-4 -6 -4 -14 -1 -17 3 -4 6 -1 6 5 0 15 26 16 33 2 3 -6
4 -5 3 2 -3 17 -32 22 -41 8z"/>
<path d="M1664 180 c0 -102 2 -143 3 -92 2 50 2 134 0 185 -1 50 -3 9 -3 -93z"/>
<path d="M2494 180 c0 -102 2 -143 3 -92 2 50 2 134 0 185 -1 50 -3 9 -3 -93z"/>
<path d="M4364 180 c0 -102 2 -143 3 -92 2 50 2 134 0 185 -1 50 -3 9 -3 -93z"/>
<path d="M7164 180 c0 -102 2 -143 3 -92 2 50 2 134 0 185 -1 50 -3 9 -3 -93z"/>
<path d="M8430 356 c0 -2 8 -10 18 -17 15 -13 16 -12 3 4 -13 16 -21 21 -21
13z"/>
<path d="M6899 323 l-24 -28 28 24 c25 23 32 31 24 31 -2 0 -14 -12 -28 -27z"/>
<path d="M4674 170 c0 -96 2 -136 3 -87 2 48 2 126 0 175 -1 48 -3 8 -3 -88z"/>
<path d="M8845 250 c44 -44 82 -80 85 -80 2 0 -31 36 -75 80 -44 44 -82 80
-85 80 -2 0 31 -36 75 -80z"/>
<path d="M8487 300 c15 -17 23 -42 26 -80 l3 -55 2 56 c2 49 -1 58 -25 80
l-28 24 22 -25z"/>
<path d="M2681 274 c0 -11 3 -14 6 -6 3 7 2 16 -1 19 -3 4 -6 -2 -5 -13z"/>
<path d="M448 273 c18 -2 45 -2 60 0 15 2 0 4 -33 4 -33 0 -45 -2 -27 -4z"/>
<path d="M1142 166 c-2 -108 -4 -122 -24 -145 l-22 -26 27 26 c28 25 28 25 24
145 l-3 119 -2 -119z"/>
<path d="M2991 273 c-1 -6 4 -15 9 -18 6 -3 11 -30 12 -58 l2 -52 3 50 c3 27
9 55 15 62 6 8 8 16 4 20 -3 3 -6 1 -6 -5 0 -16 -27 -15 -33 1 -4 9 -6 9 -6 0z"/>
<path d="M3510 271 c0 -10 19 -25 25 -20 1 2 -3 10 -11 17 -8 7 -14 8 -14 3z"/>
<path d="M7691 257 c-7 -13 -11 -43 -8 -68 l4 -44 1 51 c1 27 7 55 14 62 6 6
9 14 7 17 -3 3 -11 -5 -18 -18z"/>
<path d="M718 258 c5 -5 16 -8 23 -6 8 3 3 7 -10 11 -17 4 -21 3 -13 -5z"/>
<path d="M1547 259 c7 -7 15 -10 18 -7 3 3 -2 9 -12 12 -14 6 -15 5 -6 -5z"/>
<path d="M3207 259 c7 -7 15 -10 18 -7 3 3 -2 9 -12 12 -14 6 -15 5 -6 -5z"/>
<path d="M3728 258 c5 -5 16 -8 23 -6 8 3 3 7 -10 11 -17 4 -21 3 -13 -5z"/>
<path d="M1352 154 c-2 -109 -2 -111 26 -135 l27 -24 -22 25 c-20 22 -23 39
-26 135 l-3 110 -2 -111z"/>
<path d="M5560 123 l-125 -128 128 125 c118 116 132 130 124 130 -1 0 -58 -57
-127 -127z"/>
<path d="M3532 144 c-2 -98 -1 -101 26 -125 l27 -24 -22 25 c-19 22 -23 39
-26 125 l-3 100 -2 -101z"/>
<path d="M8214 183 c13 -23 -6 -38 -21 -18 -7 11 -13 14 -13 8 0 -7 5 -15 10
-18 6 -3 11 -41 12 -83 l2 -77 3 75 c2 41 9 80 15 87 8 10 8 17 -2 26 -10 9
-11 9 -6 0z"/>
<path d="M2160 175 c0 -6 4 -15 10 -21 5 -5 10 -43 12 -84 l3 -75 5 82 c3 44
2 79 -2 77 -4 -2 -11 4 -17 13 -6 10 -11 13 -11 8z"/>
<path d="M832 109 c-2 -60 0 -68 26 -90 l27 -24 -22 25 c-17 19 -23 41 -26 90
l-3 65 -2 -66z"/>
<path d="M6853 110 c0 -36 2 -50 4 -32 2 17 2 47 0 65 -2 17 -4 3 -4 -33z"/>
<path d="M9034 85 c0 -50 1 -71 3 -48 2 23 2 64 0 90 -2 26 -3 8 -3 -42z"/>
<path d="M9490 124 c25 -28 49 -48 53 -46 5 2 7 5 5 6 -2 0 -26 21 -53 46
l-49 45 44 -51z"/>
<path d="M6385 120 c-16 -16 -35 -30 -42 -30 -11 0 -11 -3 -1 -14 9 -10 14
-11 17 -3 2 7 17 27 34 45 17 17 29 32 26 32 -3 0 -18 -13 -34 -30z"/>
<path d="M7790 147 c0 -1 35 -36 78 -77 l77 -75 -75 78 c-69 71 -80 82 -80 74z"/>
<path d="M1490 115 c13 -14 26 -25 28 -25 3 0 -5 11 -18 25 -13 14 -26 25 -28
25 -3 0 5 -11 18 -25z"/>
<path d="M310 96 c0 -4 7 -14 15 -22 8 -9 15 -11 15 -6 0 5 -7 15 -15 22 -8 7
-15 9 -15 6z"/>
<path d="M1855 79 c-4 -6 -5 -12 -2 -15 2 -3 7 2 10 11 7 17 1 20 -8 4z"/>
<path d="M7045 80 c-3 -6 1 -7 9 -4 18 7 21 14 7 14 -6 0 -13 -4 -16 -10z"/>
<path d="M7470 86 c0 -2 7 -7 16 -10 8 -3 12 -2 9 4 -6 10 -25 14 -25 6z"/>
<path d="M9383 63 c15 -2 37 -2 50 0 12 2 0 4 -28 4 -27 0 -38 -2 -22 -4z"/>
<path d="M5755 20 c10 -11 20 -20 23 -20 3 0 -3 9 -13 20 -10 11 -20 20 -23
20 -3 0 3 -9 13 -20z"/>
</g>
</svg>
